<svg width="218" height="218" viewBox="0 0 218 218" fill="none" xmlns="http://www.w3.org/2000/svg">
<g clip-path="url(#clip0_183_116)">
<path d="M218 51.0938C218 41.916 206.03 37.6569 202.097 36.2574C194.851 33.6793 184.681 31.4009 172.571 29.6357C169.244 25.6712 165.542 22.0044 161.501 18.7024C146.742 6.64219 128.097 0 109.002 0C85.0881 0 62.325 10.3205 46.549 28.3153C46.1662 28.7517 45.7924 29.1941 45.4198 29.6374C33.3131 31.4022 23.1467 33.6801 15.9029 36.2574C11.9696 37.6569 0 41.916 0 51.0938C0 59.1576 8.96568 63.1021 11.9121 64.3977C15.8833 66.1447 20.9808 67.7499 27.1184 69.1941C25.7363 77.4053 25.6005 85.8171 26.7237 94.3284C29.2546 112.838 38.0248 129.991 51.5221 142.942V218H140.936V191.602H179.256V140.508H206.325L190.957 69.1426C193.962 68.4333 196.731 67.686 199.223 66.9022C207.284 64.3683 218 59.9726 218 51.0938ZM204.069 51.1074C201.783 52.5538 196.828 54.6661 187.784 56.7847C186.342 52.4703 184.548 48.2836 182.424 44.271C194.995 46.7793 201.391 49.4332 204.069 51.1074ZM35.5425 44.2774C33.4281 48.281 31.65 52.4643 30.2079 56.8056C20.4873 54.537 15.9579 52.3698 13.9533 51.0938C16.6412 49.42 23.0275 46.7772 35.5425 44.2774ZM190.508 127.734H166.483V140.508H147.32C136.755 140.508 128.16 149.103 128.16 159.668V166.055H140.934V159.668C140.934 156.146 143.799 153.281 147.32 153.281H166.483V178.828C162.011 178.828 134.221 178.828 128.162 178.828H128.158L128.162 205.227H64.2951V137.299L62.167 135.395C49.7227 124.26 41.6299 109.061 39.3831 92.6279C38.4429 85.5024 38.5413 78.4672 39.6304 71.6735C58.8353 74.8843 83.2466 76.6406 109 76.6406V63.8672C84.6419 63.8672 61.1763 62.2292 42.8242 59.253C45.7523 51.1057 50.226 43.4978 56.1537 36.736C69.5045 21.5075 88.7673 12.7734 109.002 12.7734C138.754 12.7734 165.23 31.8438 175.121 59.2466C170.532 59.9896 165.323 60.6989 159.405 61.341L160.782 74.04C167.087 73.3561 172.994 72.5472 178.427 71.6347L190.508 127.734Z" fill="black"/>
<path d="M121.773 63.8672H134.547V76.6406H121.773V63.8672Z" fill="black"/>
<path d="M172.452 0H185.641V12.7734H172.452V0Z" fill="black"/>
<path d="M0.0107422 76.6406H13.1993V89.4141H0.0107422V76.6406Z" fill="black"/>
</g>
<defs>
<clipPath id="clip0_183_116">
<rect width="218" height="218" fill="white"/>
</clipPath>
</defs>
</svg>
