<svg width="218" height="218" viewBox="0 0 218 218" fill="none" xmlns="http://www.w3.org/2000/svg">
<g clip-path="url(#clip0_183_148)">
<path d="M123.827 144.812C123.013 143.921 121.983 143.254 120.919 142.698C118.601 141.49 116.066 140.757 113.55 140.095V159.596C117.635 159.134 122.324 157.652 124.469 153.838C125.493 152.017 125.696 149.779 125.279 147.751C125.053 146.652 124.586 145.644 123.827 144.812Z" fill="black"/>
<path d="M124.447 153.876C124.456 153.862 124.46 153.853 124.469 153.838C124.462 153.851 124.455 153.863 124.447 153.876Z" fill="black"/>
<path d="M94.3905 113.638C93.6883 114.664 93.2476 115.829 93.126 117.067C93.0045 118.308 93.0727 119.688 93.5441 120.856C93.993 121.969 94.9332 122.791 95.9037 123.453C96.9928 124.194 98.1905 124.772 99.4104 125.263C100.434 125.674 101.585 126.068 102.826 126.449V108.803C99.691 109.472 96.2659 110.9 94.3905 113.638Z" fill="black"/>
<path d="M124.55 153.694C124.525 153.74 124.497 153.788 124.47 153.838C124.502 153.779 124.527 153.736 124.55 153.694Z" fill="black"/>
<path d="M124.652 153.512C124.659 153.499 124.66 153.498 124.652 153.512V153.512Z" fill="black"/>
<path d="M120.42 47.4334C137.004 33.5023 148.085 2.11755 141.265 0.744854C132.204 -1.07976 112.528 6.92096 103.018 8.33058C89.5288 9.95925 74.8375 -6.29662 66.591 2.7644C59.8861 10.1316 71.398 36.9238 89.4088 48.5958C35.6746 75.0053 -39.8523 207.583 91.9084 217.203C274.222 230.514 182.931 73.1689 120.42 47.4334ZM136.077 151.991C135.517 157.159 132.777 161.833 128.683 165.007C124.36 168.357 118.937 169.916 113.549 170.352V176.063C113.549 177.591 112.882 179.069 111.738 180.081C110.166 181.472 107.856 181.815 105.947 180.936C104.063 180.069 102.825 178.136 102.825 176.063V169.821C101.902 169.646 100.984 169.437 100.078 169.188C95.0427 167.805 90.3721 165.108 86.9604 161.118C85.2609 159.13 83.8754 156.873 82.9172 154.437C82.6669 153.8 82.4437 153.152 82.2483 152.496C82.0713 151.903 81.8887 151.3 81.8256 150.681C81.7194 149.643 81.9251 148.585 82.4088 147.66C83.403 145.759 85.4979 144.61 87.637 144.801C89.7422 144.988 91.5873 146.449 92.2501 148.455C92.4542 149.073 92.5927 149.707 92.822 150.318C93.0493 150.926 93.3237 151.516 93.6464 152.078C94.2835 153.185 95.0816 154.206 96.0009 155.092C97.8958 156.918 100.309 158.104 102.825 158.81V137.593C97.9055 136.319 92.8272 134.674 88.7645 131.515C86.7901 129.979 85.1147 128.071 84.0175 125.812C82.8597 123.429 82.3801 120.773 82.3606 118.135C82.3406 115.457 82.8495 112.803 83.9667 110.362C85.0132 108.078 86.5197 106.026 88.3669 104.326C92.3168 100.691 97.5634 98.6628 102.826 97.9179V97.4511V91.9896C102.826 90.462 103.493 88.9836 104.637 87.972C106.21 86.5814 108.519 86.2377 110.428 87.1169C112.312 87.9844 113.55 89.9162 113.55 91.9896V97.4511V97.8856C114.251 97.9738 114.95 98.0795 115.646 98.2057C120.814 99.1408 125.868 101.275 129.647 105C131.437 106.765 132.903 108.868 133.933 111.161C134.221 111.8 134.473 112.455 134.691 113.122C134.894 113.744 135.098 114.385 135.195 115.035C135.35 116.071 135.192 117.142 134.748 118.091C133.839 120.034 131.801 121.271 129.656 121.179C127.549 121.088 125.639 119.715 124.885 117.746C124.66 117.16 124.548 116.54 124.319 115.955C124.087 115.364 123.788 114.8 123.442 114.267C122.772 113.23 121.902 112.342 120.909 111.61C118.76 110.023 116.153 109.196 113.548 108.734V129.038C116.644 129.779 119.742 130.588 122.708 131.757C127.191 133.525 131.439 136.235 133.886 140.509C133.506 139.844 133.137 139.195 133.899 140.532C134.647 141.845 134.29 141.219 133.914 140.561C135.861 143.991 136.501 148.094 136.077 151.991Z" fill="black"/>
<path d="M124.391 153.976C124.359 154.032 124.332 154.081 124.311 154.119C124.329 154.087 124.357 154.038 124.391 153.976Z" fill="black"/>
</g>
<defs>
<clipPath id="clip0_183_148">
<rect width="218" height="218" fill="white"/>
</clipPath>
</defs>
</svg>
