<svg width="865" height="70" viewBox="0 0 865 70" fill="none" xmlns="http://www.w3.org/2000/svg">
<path d="M0.96875 70V2.96875H28.1562C41.8438 2.96875 48.6875 8.95313 48.6875 20.9219C48.6875 33.9531 39.3281 41.9062 20.6094 44.7812L18.8281 37.4688C32.5781 35.4375 39.4531 30.0469 39.4531 21.2969C39.4531 13.8594 35.4219 10.1406 27.3594 10.1406H9.64062V70H0.96875ZM56.9375 55.1406C56.9375 45.0469 63.5938 40 76.9062 40C81.1875 40 85.4688 40.3125 89.75 40.9375V36.2969C89.75 30.6406 85.3281 27.8125 76.4844 27.8125C71.4219 27.8125 66.2344 28.5938 60.9219 30.1562V23.125C66.2344 21.5625 71.4219 20.7812 76.4844 20.7812C91.1094 20.7812 98.4219 25.875 98.4219 36.0625V70H93.5469L90.5469 65.125C85.6406 68.375 80.2969 70 74.5156 70C62.7969 70 56.9375 65.0469 56.9375 55.1406ZM76.9062 47.0312C69.375 47.0312 65.6094 49.6875 65.6094 55C65.6094 60.3125 68.5781 62.9688 74.5156 62.9688C80.5156 62.9688 85.5938 61.375 89.75 58.1875V47.9688C85.4688 47.3438 81.1875 47.0312 76.9062 47.0312ZM112.531 70V20.7812H118.391L119.938 27.0625C124.25 22.875 129.438 20.7812 135.5 20.7812V28C129.625 28 124.859 30.0781 121.203 34.2344V70H112.531ZM144.219 70V20.7812H150.078L151.625 27.0625C155.938 22.875 161.125 20.7812 167.188 20.7812V28C161.312 28 156.547 30.0781 152.891 34.2344V70H144.219ZM173.562 55.1406C173.562 45.0469 180.219 40 193.531 40C197.812 40 202.094 40.3125 206.375 40.9375V36.2969C206.375 30.6406 201.953 27.8125 193.109 27.8125C188.047 27.8125 182.859 28.5938 177.547 30.1562V23.125C182.859 21.5625 188.047 20.7812 193.109 20.7812C207.734 20.7812 215.047 25.875 215.047 36.0625V70H210.172L207.172 65.125C202.266 68.375 196.922 70 191.141 70C179.422 70 173.562 65.0469 173.562 55.1406ZM193.531 47.0312C186 47.0312 182.234 49.6875 182.234 55C182.234 60.3125 185.203 62.9688 191.141 62.9688C197.141 62.9688 202.219 61.375 206.375 58.1875V47.9688C202.094 47.3438 197.812 47.0312 193.531 47.0312ZM229.156 70V18.3906C229.156 6.48438 235.906 0.53125 249.406 0.53125C253.125 0.53125 256.625 1.15625 259.906 2.40625V9.4375C256.812 8.1875 253.297 7.5625 249.359 7.5625C241.672 7.5625 237.828 11.0469 237.828 18.0156V20.7812H253.062V27.8125H237.828V70H229.156ZM268.859 45.2031C268.859 57.0469 273.781 62.9688 283.625 62.9688C293.469 62.9688 298.391 57.0469 298.391 45.2031C298.391 33.6094 293.469 27.8125 283.625 27.8125C273.781 27.8125 268.859 33.6094 268.859 45.2031ZM260.188 45.3906C260.188 28.9844 268 20.7812 283.625 20.7812C299.25 20.7812 307.062 28.9844 307.062 45.3906C307.062 61.7656 299.25 69.9531 283.625 69.9531C268.062 69.9531 260.25 61.7656 260.188 45.3906ZM318.312 67.6562V60.1562C324.094 62.0312 329.938 62.9688 335.844 62.9688C343.688 62.9688 347.609 60.625 347.609 55.9375C347.609 51.5625 344.875 49.375 339.406 49.375H332.375C321.75 49.375 316.438 44.5312 316.438 34.8438C316.438 25.4688 323.266 20.7812 336.922 20.7812C342.797 20.7812 348.625 21.5625 354.406 23.125V30.625C348.625 28.75 342.797 27.8125 336.922 27.8125C328.734 27.8125 324.641 30.1562 324.641 34.8438C324.641 39.2188 327.219 41.4062 332.375 41.4062H339.406C350.656 41.4062 356.281 46.25 356.281 55.9375C356.281 65.3125 349.469 70 335.844 70C329.938 70 324.094 69.2188 318.312 67.6562ZM412.531 41.875V48.9062H389.094V41.875H412.531ZM447.219 67.6562V60.1562C453 62.0312 458.844 62.9688 464.75 62.9688C472.594 62.9688 476.516 60.625 476.516 55.9375C476.516 51.5625 473.781 49.375 468.312 49.375H461.281C450.656 49.375 445.344 44.5312 445.344 34.8438C445.344 25.4688 452.172 20.7812 465.828 20.7812C471.703 20.7812 477.531 21.5625 483.312 23.125V30.625C477.531 28.75 471.703 27.8125 465.828 27.8125C457.641 27.8125 453.547 30.1562 453.547 34.8438C453.547 39.2188 456.125 41.4062 461.281 41.4062H468.312C479.562 41.4062 485.188 46.25 485.188 55.9375C485.188 65.3125 478.375 70 464.75 70C458.844 70 453 69.2188 447.219 67.6562ZM494.562 55.1406C494.562 45.0469 501.219 40 514.531 40C518.812 40 523.094 40.3125 527.375 40.9375V36.2969C527.375 30.6406 522.953 27.8125 514.109 27.8125C509.047 27.8125 503.859 28.5938 498.547 30.1562V23.125C503.859 21.5625 509.047 20.7812 514.109 20.7812C528.734 20.7812 536.047 25.875 536.047 36.0625V70H531.172L528.172 65.125C523.266 68.375 517.922 70 512.141 70C500.422 70 494.562 65.0469 494.562 55.1406ZM514.531 47.0312C507 47.0312 503.234 49.6875 503.234 55C503.234 60.3125 506.203 62.9688 512.141 62.9688C518.141 62.9688 523.219 61.375 527.375 58.1875V47.9688C523.094 47.3438 518.812 47.0312 514.531 47.0312ZM550.156 70V20.7812H556.016L557.562 27.0625C562.594 22.875 568.125 20.7812 574.156 20.7812C586.438 20.7812 592.578 26.8906 592.578 39.1094V70H583.906V38.9688C583.906 31.6562 580.266 28 572.984 28C568.016 28 563.297 30.0781 558.828 34.2344V70H550.156ZM606.219 67.6562V60.1562C612 62.0312 617.844 62.9688 623.75 62.9688C631.594 62.9688 635.516 60.625 635.516 55.9375C635.516 51.5625 632.781 49.375 627.312 49.375H620.281C609.656 49.375 604.344 44.5312 604.344 34.8438C604.344 25.4688 611.172 20.7812 624.828 20.7812C630.703 20.7812 636.531 21.5625 642.312 23.125V30.625C636.531 28.75 630.703 27.8125 624.828 27.8125C616.641 27.8125 612.547 30.1562 612.547 34.8438C612.547 39.2188 615.125 41.4062 620.281 41.4062H627.312C638.562 41.4062 644.188 46.25 644.188 55.9375C644.188 65.3125 637.375 70 623.75 70C617.844 70 612 69.2188 606.219 67.6562ZM653.562 55.1406C653.562 45.0469 660.219 40 673.531 40C677.812 40 682.094 40.3125 686.375 40.9375V36.2969C686.375 30.6406 681.953 27.8125 673.109 27.8125C668.047 27.8125 662.859 28.5938 657.547 30.1562V23.125C662.859 21.5625 668.047 20.7812 673.109 20.7812C687.734 20.7812 695.047 25.875 695.047 36.0625V70H690.172L687.172 65.125C682.266 68.375 676.922 70 671.141 70C659.422 70 653.562 65.0469 653.562 55.1406ZM673.531 47.0312C666 47.0312 662.234 49.6875 662.234 55C662.234 60.3125 665.203 62.9688 671.141 62.9688C677.141 62.9688 682.219 61.375 686.375 58.1875V47.9688C682.094 47.3438 677.812 47.0312 673.531 47.0312ZM709.156 12.8125H714.594L716.469 20.7812H729.781V27.8125H717.828V56.0781C717.828 60.6719 719.812 62.9688 723.781 62.9688H729.781V70H721.531C713.281 70 709.156 65.5781 709.156 56.7344V12.8125ZM750.453 20.7812V70H741.781V20.7812H750.453ZM750.453 2.96875V11.1719H741.781V2.96875H750.453ZM771.828 45.2031C771.828 57.0469 776.75 62.9688 786.594 62.9688C796.438 62.9688 801.359 57.0469 801.359 45.2031C801.359 33.6094 796.438 27.8125 786.594 27.8125C776.75 27.8125 771.828 33.6094 771.828 45.2031ZM763.156 45.3906C763.156 28.9844 770.969 20.7812 786.594 20.7812C802.219 20.7812 810.031 28.9844 810.031 45.3906C810.031 61.7656 802.219 69.9531 786.594 69.9531C771.031 69.9531 763.219 61.7656 763.156 45.3906ZM821.75 70V20.7812H827.609L829.156 27.0625C834.188 22.875 839.719 20.7812 845.75 20.7812C858.031 20.7812 864.172 26.8906 864.172 39.1094V70H855.5V38.9688C855.5 31.6562 851.859 28 844.578 28C839.609 28 834.891 30.0781 830.422 34.2344V70H821.75Z" fill="#1E1E1E"/>
</svg>
