<svg width="309" height="158" viewBox="0 0 309 158" fill="none" xmlns="http://www.w3.org/2000/svg">
<path d="M24.386 4.708C24.9873 4.73533 25.288 5.036 25.288 5.61C25.288 6.07466 25.1377 6.60766 24.837 7.209C24.5363 7.81033 24.2357 8.28867 23.935 8.644C23.361 9.35466 22.705 9.833 21.967 10.079C21.229 10.325 20.3817 10.448 19.425 10.448C19.097 10.448 18.5777 10.4207 17.867 10.366C16.9923 10.3113 16.3363 10.2977 15.899 10.325C15.6803 10.325 15.4207 10.325 15.12 10.325C14.8467 10.325 14.6553 10.3797 14.546 10.489C14.464 10.5983 14.3547 10.8443 14.218 11.227C14.136 11.5003 14.0813 11.8557 14.054 12.293C14.054 12.7303 14.054 13.0447 14.054 13.236L13.767 17.787C13.685 19.3723 13.6303 20.7663 13.603 21.969C13.5757 23.1443 13.5483 24.1283 13.521 24.921C13.521 25.987 13.5073 26.7797 13.48 27.299C13.6987 27.2443 13.849 27.217 13.931 27.217C14.5323 27.217 14.833 27.6817 14.833 28.611C14.833 29.267 14.7237 29.964 14.505 30.702C14.3137 31.44 14.0677 32.26 13.767 33.162C13.603 33.6267 13.2477 34.2553 12.701 35.048C12.1817 35.8133 11.594 36.483 10.938 37.057C10.282 37.631 9.708 37.918 9.216 37.918C8.58733 37.918 8.16367 37.426 7.945 36.442C7.72633 35.4853 7.617 34.3373 7.617 32.998C7.617 31.4947 7.76733 29.595 8.068 27.299L8.355 24.347C8.765 19.017 9.27067 14.671 9.872 11.309C9.708 11.3637 9.257 11.514 8.519 11.76C7.80833 11.9787 7.15233 12.2383 6.551 12.539C5.94967 12.8397 5.485 13.154 5.157 13.482C4.80167 13.8647 4.48733 14.3567 4.214 14.958C3.85867 15.5593 3.54433 16.024 3.271 16.352C3.025 16.68 2.656 16.9397 2.164 17.131C1.86333 17.2677 1.56267 17.336 1.262 17.336C0.688 17.336 0.401 16.9807 0.401 16.27C0.401 15.8053 0.510333 15.2587 0.729 14.63C0.947667 14.0013 1.18 13.4957 1.426 13.113C3.25733 10.1063 6.07267 7.947 9.872 6.635C13.6713 5.29567 17.6893 4.626 21.926 4.626C22.5273 4.626 23.3473 4.65333 24.386 4.708ZM23.5253 14.507C23.5527 13.9603 23.949 13.482 24.7143 13.072C25.4797 12.6347 26.245 12.416 27.0103 12.416C27.4477 12.416 27.803 12.5117 28.0763 12.703C28.3497 12.867 28.4727 13.1403 28.4453 13.523L27.2563 35.786C27.229 36.36 26.8327 36.8657 26.0673 37.303C25.302 37.713 24.5367 37.918 23.7713 37.918C22.76 37.918 22.268 37.5217 22.2953 36.729L23.5253 14.507ZM23.4433 9.095C23.3887 9.47766 23.4843 9.76467 23.7303 9.956C24.0037 10.1473 24.359 10.243 24.7963 10.243C25.5343 10.243 26.286 10.038 27.0513 9.628C27.8167 9.218 28.2403 8.726 28.3223 8.152C28.541 6.78533 28.6913 5.76033 28.7733 5.077C28.8827 4.39366 28.459 4.052 27.5023 4.052C26.7643 4.052 25.999 4.257 25.2063 4.667C24.4137 5.077 23.99 5.54167 23.9353 6.061L23.4433 9.095ZM42.8844 12.129C43.4584 12.0743 43.8957 12.1427 44.1964 12.334C44.5244 12.5253 44.866 12.8943 45.2214 13.441C45.44 13.7963 45.5494 14.097 45.5494 14.343C45.5494 14.9443 45.1667 15.2997 44.4014 15.409L42.9664 15.573C41.627 15.7643 40.9164 15.86 40.8344 15.86C40.3697 20.2333 40.0007 24.0327 39.7274 27.258C39.454 30.4833 39.2764 33.6677 39.1944 36.811C39.167 37.1937 39.003 37.4807 38.7024 37.672C38.429 37.8633 38.06 37.959 37.5954 37.959C36.7754 37.959 35.9554 37.7403 35.1354 37.303C34.3427 36.8383 33.96 36.319 33.9874 35.745C34.0694 32.8477 34.2334 29.8957 34.4794 26.889C34.7254 23.855 35.0534 20.3427 35.4634 16.352L32.8804 16.68C32.4977 16.7073 32.197 16.6937 31.9784 16.639C31.787 16.557 31.5957 16.393 31.4044 16.147C31.213 15.901 31.0217 15.6277 30.8304 15.327C30.6117 15.0263 30.5024 14.7257 30.5024 14.425C30.5024 14.179 30.598 13.9603 30.7894 13.769C30.9807 13.5777 31.2677 13.4547 31.6504 13.4C32.2517 13.318 32.9487 13.2223 33.7414 13.113L35.8324 12.826L36.5704 5.733C36.6524 4.96766 37.2127 4.585 38.2514 4.585C39.0714 4.585 39.864 4.81733 40.6294 5.282C41.422 5.71933 41.791 6.225 41.7364 6.799L41.2034 12.293C41.9687 12.2383 42.529 12.1837 42.8844 12.129ZM56.9637 14.507C56.991 13.9603 57.3737 13.482 58.1117 13.072C58.877 12.6347 59.6424 12.416 60.4077 12.416C60.845 12.416 61.2004 12.5117 61.4737 12.703C61.747 12.867 61.87 13.1403 61.8427 13.523C61.788 14.5617 61.7607 15.3953 61.7607 16.024C61.624 19.5773 61.378 22.5977 61.0227 25.085C60.6947 27.5723 59.943 29.9093 58.7677 32.096C57.5924 34.2827 55.843 35.7177 53.5197 36.401C52.727 36.6197 51.9754 36.729 51.2647 36.729C49.5154 36.729 47.971 36.2097 46.6317 35.171C45.3197 34.1323 44.568 32.7247 44.3767 30.948C44.322 30.2373 44.2947 29.7043 44.2947 29.349C44.2947 27.463 44.5817 25.536 45.1557 23.568C45.7297 21.6 46.5634 19.222 47.6567 16.434C47.9847 15.696 48.3537 14.753 48.7637 13.605C48.9277 13.1403 49.3377 12.7577 49.9937 12.457C50.677 12.129 51.3467 11.965 52.0027 11.965C52.44 11.965 52.7954 12.0607 53.0687 12.252C53.342 12.416 53.4787 12.662 53.4787 12.99C53.4787 13.0993 53.4514 13.2633 53.3967 13.482C52.85 15.0673 52.4264 16.2563 52.1257 17.049C51.333 19.263 50.718 21.1217 50.2807 22.625C49.8434 24.101 49.5427 25.618 49.3787 27.176C49.324 27.832 49.2967 28.3513 49.2967 28.734C49.2967 30.3467 49.693 31.5083 50.4857 32.219C50.7317 32.465 51.0597 32.6973 51.4697 32.916C51.8797 33.1073 52.2624 33.2167 52.6177 33.244L52.9457 33.326C52.973 33.326 53.0277 33.285 53.1097 33.203C53.793 32.7657 54.3397 32.0277 54.7497 30.989C55.187 29.923 55.474 28.98 55.6107 28.16C55.7474 27.34 55.9387 26.0417 56.1847 24.265C56.376 22.8163 56.5264 21.231 56.6357 19.509C56.7724 17.787 56.8817 16.1197 56.9637 14.507ZM66.3886 4.052C66.4432 3.53266 66.8806 3.068 67.7006 2.658C68.5206 2.22067 69.2996 2.002 70.0376 2.002C70.9122 2.002 71.3359 2.33 71.3086 2.986C70.8712 7.87867 70.1469 14.63 69.1356 23.24C68.4796 29.1167 68.0559 32.9297 67.8646 34.679C67.8099 35.253 67.3726 35.7723 66.5526 36.237C65.7599 36.6743 64.9809 36.893 64.2156 36.893C63.1496 36.893 62.6576 36.4967 62.7396 35.704C63.6962 26.3013 64.9126 15.7507 66.3886 4.052ZM84.1521 27.791C84.7808 26.315 85.0951 24.798 85.0951 23.24C85.0951 22.01 84.8765 20.8893 84.4391 19.878C84.0291 18.8393 83.3731 17.992 82.4711 17.336C81.8698 16.8987 81.2958 16.68 80.7491 16.68C80.5305 16.68 80.2571 16.7347 79.9291 16.844C80.1751 16.9533 80.2981 17.1447 80.2981 17.418C80.2981 17.582 80.2435 17.7733 80.1341 17.992C79.5055 19.1947 79.0135 20.5067 78.6581 21.928C78.3028 23.322 78.1251 24.7297 78.1251 26.151C78.1251 27.791 78.3711 29.349 78.8631 30.825C79.1911 31.645 79.5328 32.2873 79.8881 32.752C80.0521 32.9433 80.2161 33.08 80.3801 33.162C81.1728 32.6153 81.8835 31.85 82.5121 30.866C83.1681 29.882 83.7148 28.857 84.1521 27.791ZM83.5781 13.4C84.9175 13.6733 86.0655 14.261 87.0221 15.163C87.9788 16.065 88.7031 17.1583 89.1951 18.443C89.6871 19.7003 89.9331 21.0123 89.9331 22.379C89.9331 23.9917 89.6188 25.6453 88.9901 27.34C88.3615 29.0347 87.5005 30.5927 86.4071 32.014C85.3138 33.4353 84.0975 34.556 82.7581 35.376C81.5008 36.1413 80.2708 36.524 79.0681 36.524C77.8655 36.524 76.8131 36.155 75.9111 35.417C75.0091 34.679 74.3531 33.613 73.9431 32.219C73.4785 30.7977 73.2461 29.1987 73.2461 27.422C73.2461 26.356 73.3281 25.3173 73.4921 24.306C73.3008 24.3607 73.0138 24.388 72.6311 24.388C71.7018 24.388 71.2371 24.0737 71.2371 23.445C71.2371 23.2263 71.2645 23.0487 71.3191 22.912C72.2485 20.3153 73.6425 18.0603 75.5011 16.147C77.3871 14.2063 79.5465 13.236 81.9791 13.236C82.3345 13.236 82.8675 13.2907 83.5781 13.4ZM106.088 18.648C105.569 18.2107 104.667 17.6367 103.382 16.926C102.125 16.188 101.155 15.819 100.471 15.819C99.9248 15.819 99.6514 16.0923 99.6514 16.639C99.6514 16.8303 99.7198 17.1583 99.8564 17.623C100.048 18.2517 100.471 18.853 101.127 19.427C101.783 19.9737 102.644 20.616 103.71 21.354C104.585 21.9553 105.145 22.3653 105.391 22.584C106.594 23.6227 107.551 24.4973 108.261 25.208C108.972 25.8913 109.614 26.7113 110.188 27.668C110.79 28.5973 111.09 29.554 111.09 30.538C111.09 31.194 110.926 31.8773 110.598 32.588C109.97 33.8727 108.931 34.8567 107.482 35.54C106.061 36.2233 104.544 36.565 102.931 36.565C102.385 36.565 101.838 36.524 101.291 36.442C97.5741 35.8133 94.1438 33.3397 91.0004 29.021C90.8364 28.775 90.7544 28.529 90.7544 28.283C90.7544 27.6817 91.1508 27.135 91.9434 26.643C92.7634 26.1237 93.5698 25.864 94.3624 25.864C94.9638 25.864 95.4011 26.0417 95.6744 26.397C97.3691 28.693 99.0364 30.374 100.676 31.44C102.18 32.424 103.451 32.916 104.489 32.916C105.337 32.916 105.76 32.547 105.76 31.809C105.76 31.2897 105.555 30.6473 105.145 29.882C104.735 29.144 104.202 28.447 103.546 27.791C102.89 27.135 102.057 26.3833 101.045 25.536L99.9384 24.593C99.8291 24.4837 99.3234 24.0873 98.4214 23.404C97.6834 22.8573 97.0548 22.3517 96.5354 21.887C96.0161 21.4223 95.5788 20.9167 95.2234 20.37C94.7588 19.632 94.5264 18.8667 94.5264 18.074C94.5264 16.844 95.0458 15.7233 96.0844 14.712C97.1504 13.6733 98.3668 12.9627 99.7334 12.58C100.608 12.334 101.442 12.211 102.234 12.211C103.71 12.211 105.132 12.5527 106.498 13.236C107.892 13.9193 109.3 14.8623 110.721 16.065C110.967 16.2563 111.09 16.4887 111.09 16.762C111.09 17.2813 110.667 17.787 109.819 18.279C108.972 18.771 108.138 19.017 107.318 19.017C106.772 19.017 106.362 18.894 106.088 18.648ZM125.184 24.347C124.501 24.2377 124.159 24.0053 124.159 23.65C124.159 23.3493 124.419 22.994 124.938 22.584C125.458 22.174 126.045 21.846 126.701 21.6C127.357 21.3267 127.89 21.2173 128.3 21.272C129.94 21.518 131.539 21.641 133.097 21.641C134.956 21.641 136.856 21.477 138.796 21.149C139.37 21.067 139.739 21.026 139.903 21.026C140.751 21.026 141.188 21.3403 141.215 21.969C141.243 22.461 140.901 22.8983 140.19 23.281C139.507 23.6637 138.865 23.9097 138.263 24.019C136.049 24.5657 133.644 24.839 131.047 24.839C129.052 24.839 127.098 24.675 125.184 24.347ZM170.752 18.648C170.232 18.2107 169.33 17.6367 168.046 16.926C166.788 16.188 165.818 15.819 165.135 15.819C164.588 15.819 164.315 16.0923 164.315 16.639C164.315 16.8303 164.383 17.1583 164.52 17.623C164.711 18.2517 165.135 18.853 165.791 19.427C166.447 19.9737 167.308 20.616 168.374 21.354C169.248 21.9553 169.809 22.3653 170.055 22.584C171.257 23.6227 172.214 24.4973 172.925 25.208C173.635 25.8913 174.278 26.7113 174.852 27.668C175.453 28.5973 175.754 29.554 175.754 30.538C175.754 31.194 175.59 31.8773 175.262 32.588C174.633 33.8727 173.594 34.8567 172.146 35.54C170.724 36.2233 169.207 36.565 167.595 36.565C167.048 36.565 166.501 36.524 165.955 36.442C162.237 35.8133 158.807 33.3397 155.664 29.021C155.5 28.775 155.418 28.529 155.418 28.283C155.418 27.6817 155.814 27.135 156.607 26.643C157.427 26.1237 158.233 25.864 159.026 25.864C159.627 25.864 160.064 26.0417 160.338 26.397C162.032 28.693 163.7 30.374 165.34 31.44C166.843 32.424 168.114 32.916 169.153 32.916C170 32.916 170.424 32.547 170.424 31.809C170.424 31.2897 170.219 30.6473 169.809 29.882C169.399 29.144 168.866 28.447 168.21 27.791C167.554 27.135 166.72 26.3833 165.709 25.536L164.602 24.593C164.492 24.4837 163.987 24.0873 163.085 23.404C162.347 22.8573 161.718 22.3517 161.199 21.887C160.679 21.4223 160.242 20.9167 159.887 20.37C159.422 19.632 159.19 18.8667 159.19 18.074C159.19 16.844 159.709 15.7233 160.748 14.712C161.814 13.6733 163.03 12.9627 164.397 12.58C165.271 12.334 166.105 12.211 166.898 12.211C168.374 12.211 169.795 12.5527 171.162 13.236C172.556 13.9193 173.963 14.8623 175.385 16.065C175.631 16.2563 175.754 16.4887 175.754 16.762C175.754 17.2813 175.33 17.787 174.483 18.279C173.635 18.771 172.802 19.017 171.982 19.017C171.435 19.017 171.025 18.894 170.752 18.648ZM194.178 32.219C194.588 32.3557 194.793 32.6017 194.793 32.957C194.793 33.3943 194.533 33.8727 194.014 34.392C193.44 34.966 192.702 35.253 191.8 35.253C191.362 35.253 190.993 35.1983 190.693 35.089C189.244 34.6243 187.932 34.392 186.757 34.392C184.707 34.392 182.616 35.048 180.484 36.36C180.128 36.606 179.691 36.811 179.172 36.975C178.68 37.1117 178.215 37.18 177.778 37.18C177.368 37.18 177.04 37.1117 176.794 36.975C176.548 36.811 176.425 36.565 176.425 36.237C176.425 36.0457 176.452 35.8817 176.507 35.745C177.299 33.531 177.928 31.5357 178.393 29.759C178.885 27.9823 179.213 26.1783 179.377 24.347C179.623 21.887 179.746 20.083 179.746 18.935C179.746 15.901 179.158 13.5777 177.983 11.965C177.846 11.801 177.778 11.5823 177.778 11.309C177.778 10.7623 178.16 10.2567 178.926 9.792C179.691 9.3 180.443 9.054 181.181 9.054C181.673 9.054 182.028 9.16333 182.247 9.382C182.602 9.51867 182.834 9.73733 182.944 10.038C183.627 11.842 184.57 13.3727 185.773 14.63C186.975 15.86 188.397 16.475 190.037 16.475C190.337 16.475 190.788 16.4203 191.39 16.311C191.772 16.2563 192.018 16.229 192.128 16.229C192.592 16.229 192.934 16.3383 193.153 16.557C193.399 16.7483 193.522 17.0217 193.522 17.377C193.522 17.7597 193.358 18.1423 193.03 18.525C192.729 18.9077 192.319 19.181 191.8 19.345C190.679 19.7277 189.558 19.919 188.438 19.919C187.098 19.919 185.814 19.6457 184.584 19.099C184.529 20.6297 184.461 21.7777 184.379 22.543L184.092 25.126C185.158 24.9347 186.224 24.7707 187.29 24.634L187.864 24.593C188.957 24.593 189.504 24.962 189.504 25.7C189.504 26.192 189.23 26.6293 188.684 27.012C188.137 27.3947 187.577 27.6407 187.003 27.75C186.155 27.914 184.994 28.0917 183.518 28.283C183.217 29.6223 182.889 30.8797 182.534 32.055C184.338 31.399 186.169 31.071 188.028 31.071C190.078 31.071 192.128 31.4537 194.178 32.219ZM201.29 29.472C204.16 27.258 206.415 24.9073 208.055 22.42C205.868 21.764 203.668 20.4383 201.454 18.443C201.399 20.9303 201.344 24.6067 201.29 29.472ZM213.139 20.165C213.33 20.3017 213.426 20.4793 213.426 20.698C213.426 20.8893 213.371 21.0807 213.262 21.272C211.813 24.06 209.9 26.5337 207.522 28.693C205.144 30.8523 202.26 33.0117 198.871 35.171C198.543 35.3623 198.174 35.54 197.764 35.704C197.354 35.8407 196.957 35.909 196.575 35.909C196.165 35.909 195.809 35.7997 195.509 35.581C195.181 35.335 195.017 35.0343 195.017 34.679C195.017 34.2143 195.276 33.8043 195.796 33.449C195.85 33.4217 195.905 33.3807 195.96 33.326C196.014 33.2713 196.096 33.2167 196.206 33.162L196.37 22.994C196.424 20.78 196.479 17.4043 196.534 12.867C196.506 12.8123 196.493 12.7167 196.493 12.58C196.493 12.5253 196.52 12.3887 196.575 12.17V11.719C196.602 11.1997 196.957 10.7623 197.641 10.407C198.324 10.0243 199.048 9.833 199.814 9.833C200.333 9.833 200.743 9.92867 201.044 10.12C201.372 10.3113 201.536 10.612 201.536 11.022V11.432C204.843 15.9967 208.451 18.7847 212.36 19.796C212.77 19.9327 213.029 20.0557 213.139 20.165ZM232.888 22.133C232.915 22.1603 232.929 22.2013 232.929 22.256C233.12 23.978 233.216 25.8367 233.216 27.832C233.216 30.046 233.079 32.1643 232.806 34.187C232.724 34.7337 232.3 35.2257 231.535 35.663C230.77 36.073 230.018 36.278 229.28 36.278C228.843 36.278 228.501 36.196 228.255 36.032C228.009 35.8407 227.9 35.5537 227.927 35.171C228.2 32.6563 228.337 30.4287 228.337 28.488C227.49 30.6473 226.342 32.4787 224.893 33.982C223.444 35.458 221.763 36.196 219.85 36.196C219.44 36.196 219.03 36.155 218.62 36.073C216.843 35.7723 215.572 34.966 214.807 33.654C214.042 32.3147 213.659 30.6747 213.659 28.734C213.659 26.8207 213.973 24.7433 214.602 22.502C215.094 20.8073 215.818 19.181 216.775 17.623C217.759 16.0377 218.948 14.7393 220.342 13.728C221.736 12.7167 223.267 12.211 224.934 12.211C226.355 12.211 227.394 12.4843 228.05 13.031C228.706 13.5777 229.034 14.302 229.034 15.204C229.034 16.3247 228.624 17.5683 227.804 18.935C226.984 20.2743 226.109 21.2993 225.18 22.01C224.907 22.2013 224.538 22.3653 224.073 22.502C223.608 22.6113 223.157 22.666 222.72 22.666C222.228 22.666 221.832 22.5977 221.531 22.461C221.23 22.3243 221.08 22.133 221.08 21.887C221.08 21.5317 221.353 21.1217 221.9 20.657C222.255 20.3563 222.734 19.714 223.335 18.73C223.964 17.7187 224.278 16.926 224.278 16.352C224.278 15.8327 223.991 15.573 223.417 15.573C222.597 15.573 221.627 16.803 220.506 19.263C219.877 20.493 219.413 21.8323 219.112 23.281C218.729 25.0303 218.538 26.643 218.538 28.119C218.538 30.7703 219.262 32.2327 220.711 32.506C221.285 32.588 221.845 32.1643 222.392 31.235C222.966 30.2783 223.458 29.1577 223.868 27.873C223.513 28.0643 222.98 28.324 222.269 28.652C221.832 28.8433 221.353 28.939 220.834 28.939C220.287 28.939 219.877 28.8023 219.604 28.529C219.44 28.3103 219.358 28.1053 219.358 27.914C219.358 27.668 219.426 27.4357 219.563 27.217C219.727 26.971 219.918 26.7797 220.137 26.643C223.608 24.265 226.916 22.3653 230.059 20.944C230.305 20.8347 230.606 20.78 230.961 20.78C231.508 20.78 231.986 20.9167 232.396 21.19C232.806 21.436 232.97 21.7503 232.888 22.133ZM253.718 11.678C253.8 11.1587 254.251 10.899 255.071 10.899C255.618 10.899 256.205 11.022 256.834 11.268C257.463 11.514 257.982 11.8557 258.392 12.293C258.802 12.703 258.966 13.1267 258.884 13.564C257.627 22.1193 255.372 30.046 252.119 37.344C251.9 37.836 251.422 38.082 250.684 38.082C250.219 38.082 249.673 37.9863 249.044 37.795C247.377 37.2757 246.229 36.2917 245.6 34.843C244.999 33.367 244.63 31.563 244.493 29.431L244.411 28.406C243.427 30.4833 242.033 33.654 240.229 37.918C239.983 38.4647 239.477 38.738 238.712 38.738C238.165 38.738 237.591 38.6013 236.99 38.328C236.389 38.0547 235.897 37.713 235.514 37.303C235.159 36.893 235.008 36.4693 235.063 36.032C235.418 33.6813 235.596 30.9343 235.596 27.791C235.596 26.3423 235.541 24.1967 235.432 21.354C235.323 18.5113 235.268 16.393 235.268 14.999L235.309 13.113C235.336 12.7303 235.487 12.4433 235.76 12.252C236.061 12.0607 236.443 11.965 236.908 11.965C237.728 11.965 238.548 12.1973 239.368 12.662C240.188 13.0993 240.584 13.605 240.557 14.179L240.516 16.352C240.516 17.9647 240.571 20.3837 240.68 23.609C241.855 21.2037 243.14 18.8393 244.534 16.516C244.835 16.024 245.395 15.778 246.215 15.778C247.008 15.778 247.773 15.9967 248.511 16.434C249.276 16.8713 249.673 17.3907 249.7 17.992C249.727 18.402 249.741 19.0307 249.741 19.878C249.741 20.616 249.714 21.723 249.659 23.199C249.604 25.0303 249.591 26.397 249.618 27.299V28.652C251.531 23.076 252.898 17.418 253.718 11.678ZM260.876 14.507C260.903 13.9603 261.3 13.482 262.065 13.072C262.83 12.6347 263.596 12.416 264.361 12.416C264.798 12.416 265.154 12.5117 265.427 12.703C265.7 12.867 265.823 13.1403 265.796 13.523L264.607 35.786C264.58 36.36 264.183 36.8657 263.418 37.303C262.653 37.713 261.887 37.918 261.122 37.918C260.111 37.918 259.619 37.5217 259.646 36.729L260.876 14.507ZM260.794 9.095C260.739 9.47766 260.835 9.76467 261.081 9.956C261.354 10.1473 261.71 10.243 262.147 10.243C262.885 10.243 263.637 10.038 264.402 9.628C265.167 9.218 265.591 8.726 265.673 8.152C265.892 6.78533 266.042 5.76033 266.124 5.077C266.233 4.39366 265.81 4.052 264.853 4.052C264.115 4.052 263.35 4.257 262.557 4.667C261.764 5.077 261.341 5.54167 261.286 6.061L260.794 9.095ZM281.588 20.001C281.697 19.4543 282.107 18.9897 282.818 18.607C283.556 18.2243 284.28 18.033 284.991 18.033C285.92 18.033 286.33 18.3883 286.221 19.099L286.057 20.042C285.647 22.3653 285.223 24.3333 284.786 25.946C284.376 27.5313 283.734 29.0757 282.859 30.579C282.012 32.0823 280.891 33.2713 279.497 34.146C277.693 35.294 275.848 35.868 273.962 35.868C272.841 35.868 271.789 35.6357 270.805 35.171C269.848 34.7063 269.042 33.982 268.386 32.998C267.238 31.3033 266.664 29.3627 266.664 27.176C266.664 24.224 267.716 20.8073 269.821 16.926C270.532 15.5867 271.27 14.5207 272.035 13.728C272.828 12.9353 273.812 12.457 274.987 12.293C275.096 12.2657 275.247 12.252 275.438 12.252C275.875 12.252 276.258 12.334 276.586 12.498C277.406 10.694 278.035 9.341 278.472 8.439C278.663 8.029 279.114 7.67366 279.825 7.373C280.563 7.07233 281.246 6.922 281.875 6.922C282.695 6.922 283.105 7.18167 283.105 7.701C283.105 7.81033 283.064 7.97433 282.982 8.193C281.096 12.785 279.565 16.352 278.39 18.894C278.199 19.3313 277.748 19.7003 277.037 20.001C276.354 20.3017 275.684 20.452 275.028 20.452C274.591 20.452 274.235 20.3837 273.962 20.247C273.689 20.1103 273.552 19.8917 273.552 19.591C273.552 19.3997 273.607 19.1947 273.716 18.976L274.331 17.582C274.194 17.5547 274.071 17.4863 273.962 17.377L273.142 19.304C272.377 20.9713 271.871 22.6387 271.625 24.306C271.543 24.8253 271.502 25.3583 271.502 25.905C271.502 27.0803 271.68 28.1873 272.035 29.226C272.39 30.2647 272.951 31.0983 273.716 31.727C274.345 32.2737 274.96 32.547 275.561 32.547C277.966 32.547 279.975 28.365 281.588 20.001ZM303.679 27.217C304.143 30.6337 304.485 33.0253 304.704 34.392C304.813 35.0753 304.512 35.6767 303.802 36.196C303.091 36.7153 302.339 36.975 301.547 36.975C301.082 36.975 300.699 36.8793 300.399 36.688C300.098 36.4693 299.92 36.1413 299.866 35.704L299.538 33.039C299.155 30.0323 298.841 27.7773 298.595 26.274C298.458 25.3993 298.267 24.675 298.021 24.101C297.775 23.4997 297.378 23.0487 296.832 22.748C296.476 22.584 296.066 22.502 295.602 22.502C295.028 22.502 294.385 22.5977 293.675 22.789C293.183 26.889 292.376 31.0847 291.256 35.376C291.119 35.95 290.627 36.4557 289.78 36.893C288.96 37.303 288.167 37.508 287.402 37.508C286.91 37.508 286.541 37.426 286.295 37.262C286.049 37.0707 285.98 36.7837 286.09 36.401C287.292 32.0823 288.153 27.7637 288.673 23.445C288.126 23.445 287.648 23.3493 287.238 23.158C286.828 22.9393 286.623 22.666 286.623 22.338C286.623 21.9553 286.896 21.5727 287.443 21.19L289.042 20.042C289.26 17.6093 289.37 14.8487 289.37 11.76C289.37 10.0107 289.329 8.26133 289.247 6.512C289.219 5.96533 289.575 5.47333 290.313 5.036C291.051 4.59866 291.816 4.38 292.609 4.38C293.046 4.38 293.401 4.47566 293.675 4.667C293.975 4.831 294.139 5.10433 294.167 5.487C294.276 7.34567 294.331 9.40933 294.331 11.678C294.331 13.646 294.303 15.1083 294.249 16.065C295.233 15.1903 296.189 14.2747 297.119 13.318L298.349 12.129C298.731 11.7737 299.169 11.4867 299.661 11.268C300.153 11.022 300.645 10.899 301.137 10.899C301.437 10.899 301.765 10.981 302.121 11.145C302.476 11.2817 302.654 11.4867 302.654 11.76C302.654 11.924 302.599 12.0743 302.49 12.211C300.822 14.5617 298.39 16.9807 295.192 19.468C296.094 19.2767 296.9 19.181 297.611 19.181C299.606 19.181 301.096 19.837 302.08 21.149C302.517 21.723 302.818 22.3517 302.982 23.035C303.173 23.691 303.31 24.347 303.392 25.003C303.474 25.659 303.528 26.11 303.556 26.356L303.679 27.217ZM11.307 75.101L10.979 75.921L13.849 78.34L13.562 77.151C13.3707 76.3857 12.988 74.7593 12.414 72.272L11.307 75.101ZM15.981 63.129C16.3637 65.507 16.842 67.926 17.416 70.386C18.0173 72.8187 18.7417 75.6203 19.589 78.791C20.3817 81.7977 20.901 83.793 21.147 84.777C21.1743 84.859 21.188 84.982 21.188 85.146C21.188 85.802 20.819 86.376 20.081 86.868C19.343 87.3327 18.5777 87.565 17.785 87.565C17.129 87.565 16.6233 87.3873 16.268 87.032C15.4753 86.1847 14.6417 85.3783 13.767 84.613C12.8923 83.8477 11.7443 82.9047 10.323 81.784L8.97 80.677C7.822 83.137 6.93367 84.9547 6.305 86.13C6.11367 86.54 5.608 86.9227 4.788 87.278C3.99533 87.606 3.25733 87.77 2.574 87.77C1.80867 87.77 1.426 87.524 1.426 87.032C1.426 86.8953 1.467 86.7313 1.549 86.54C2.369 84.5173 3.33933 82.194 4.46 79.57L5.321 77.479C4.63767 76.7957 4.296 76.454 4.296 76.454C4.10467 76.2627 4.009 76.044 4.009 75.798C4.009 75.3333 4.30967 74.896 4.911 74.486C5.51233 74.0487 6.182 73.7617 6.92 73.625C8.232 70.4817 9.462 67.2837 10.61 64.031C10.7193 63.6483 11.061 63.3203 11.635 63.047C12.2363 62.7463 12.865 62.555 13.521 62.473C13.9857 62.3363 14.382 62.268 14.71 62.268C15.4753 62.268 15.899 62.555 15.981 63.129ZM39.0374 61.284C39.3381 61.0653 39.7071 60.874 40.1444 60.71C40.5817 60.546 40.9917 60.464 41.3744 60.464C41.6751 60.464 41.9484 60.546 42.1944 60.71C42.5224 60.9287 42.6864 61.2293 42.6864 61.612C42.6864 62.0767 42.4677 62.5003 42.0304 62.883C40.6911 64.0583 39.5977 65.507 38.7504 67.229C37.9304 68.9237 37.1104 71.001 36.2904 73.461C35.2244 76.7137 33.9671 81.1007 32.5184 86.622C32.3817 87.0867 31.9171 87.5787 31.1244 88.098C30.3317 88.59 29.5937 88.836 28.9104 88.836C28.3091 88.836 27.9127 88.5763 27.7214 88.057C25.1794 80.8137 23.8264 72.887 23.6624 64.277C23.6351 63.703 24.0451 63.1563 24.8924 62.637C25.7671 62.1177 26.5871 61.858 27.3524 61.858C28.1451 61.858 28.5414 62.1587 28.5414 62.76C28.5414 67.8167 29.1017 72.8187 30.2224 77.766C30.9331 75.3607 31.6164 73.3107 32.2724 71.616C33.1744 69.1833 34.1311 67.1197 35.1424 65.425C36.1537 63.703 37.4521 62.3227 39.0374 61.284ZM57.4842 83.219C57.8942 83.3557 58.0992 83.6017 58.0992 83.957C58.0992 84.3943 57.8395 84.8727 57.3202 85.392C56.7462 85.966 56.0082 86.253 55.1062 86.253C54.6689 86.253 54.2999 86.1983 53.9992 86.089C52.5505 85.6243 51.2385 85.392 50.0632 85.392C48.0132 85.392 45.9222 86.048 43.7902 87.36C43.4349 87.606 42.9975 87.811 42.4782 87.975C41.9862 88.1117 41.5215 88.18 41.0842 88.18C40.6742 88.18 40.3462 88.1117 40.1002 87.975C39.8542 87.811 39.7312 87.565 39.7312 87.237C39.7312 87.0457 39.7585 86.8817 39.8132 86.745C40.6059 84.531 41.2345 82.5357 41.6992 80.759C42.1912 78.9823 42.5192 77.1783 42.6832 75.347C42.9292 72.887 43.0522 71.083 43.0522 69.935C43.0522 66.901 42.4645 64.5777 41.2892 62.965C41.1525 62.801 41.0842 62.5823 41.0842 62.309C41.0842 61.7623 41.4669 61.2567 42.2322 60.792C42.9975 60.3 43.7492 60.054 44.4872 60.054C44.9792 60.054 45.3345 60.1633 45.5532 60.382C45.9085 60.5187 46.1409 60.7373 46.2502 61.038C46.9335 62.842 47.8765 64.3727 49.0792 65.63C50.2819 66.86 51.7032 67.475 53.3432 67.475C53.6439 67.475 54.0949 67.4203 54.6962 67.311C55.0789 67.2563 55.3249 67.229 55.4342 67.229C55.8989 67.229 56.2405 67.3383 56.4592 67.557C56.7052 67.7483 56.8282 68.0217 56.8282 68.377C56.8282 68.7597 56.6642 69.1423 56.3362 69.525C56.0355 69.9077 55.6255 70.181 55.1062 70.345C53.9855 70.7277 52.8649 70.919 51.7442 70.919C50.4049 70.919 49.1202 70.6457 47.8902 70.099C47.8355 71.6297 47.7672 72.7777 47.6852 73.543L47.3982 76.126C48.4642 75.9347 49.5302 75.7707 50.5962 75.634L51.1702 75.593C52.2635 75.593 52.8102 75.962 52.8102 76.7C52.8102 77.192 52.5369 77.6293 51.9902 78.012C51.4435 78.3947 50.8832 78.6407 50.3092 78.75C49.4619 78.914 48.3002 79.0917 46.8242 79.283C46.5235 80.6223 46.1955 81.8797 45.8402 83.055C47.6442 82.399 49.4755 82.071 51.3342 82.071C53.3842 82.071 55.4342 82.4537 57.4842 83.219ZM77.6091 80.472C80.4791 78.258 82.7341 75.9073 84.3741 73.42C82.1875 72.764 79.9871 71.4383 77.7731 69.443C77.7185 71.9303 77.6638 75.6067 77.6091 80.472ZM89.4581 71.165C89.6495 71.3017 89.7451 71.4793 89.7451 71.698C89.7451 71.8893 89.6905 72.0807 89.5811 72.272C88.1325 75.06 86.2191 77.5337 83.8411 79.693C81.4631 81.8523 78.5795 84.0117 75.1901 86.171C74.8621 86.3623 74.4931 86.54 74.0831 86.704C73.6731 86.8407 73.2768 86.909 72.8941 86.909C72.4841 86.909 72.1288 86.7997 71.8281 86.581C71.5001 86.335 71.3361 86.0343 71.3361 85.679C71.3361 85.2143 71.5958 84.8043 72.1151 84.449C72.1698 84.4217 72.2245 84.3807 72.2791 84.326C72.3338 84.2713 72.4158 84.2167 72.5251 84.162L72.6891 73.994C72.7438 71.78 72.7985 68.4043 72.8531 63.867C72.8258 63.8123 72.8121 63.7167 72.8121 63.58C72.8121 63.5253 72.8395 63.3887 72.8941 63.17V62.719C72.9215 62.1997 73.2768 61.7623 73.9601 61.407C74.6435 61.0243 75.3678 60.833 76.1331 60.833C76.6525 60.833 77.0625 60.9287 77.3631 61.12C77.6911 61.3113 77.8551 61.612 77.8551 62.022V62.432C81.1625 66.9967 84.7705 69.7847 88.6791 70.796C89.0891 70.9327 89.3488 71.0557 89.4581 71.165ZM91.3505 65.507C91.3779 64.9603 91.7742 64.482 92.5395 64.072C93.3049 63.6347 94.0702 63.416 94.8355 63.416C95.2729 63.416 95.6282 63.5117 95.9015 63.703C96.1749 63.867 96.2979 64.1403 96.2705 64.523L95.0815 86.786C95.0542 87.36 94.6579 87.8657 93.8925 88.303C93.1272 88.713 92.3619 88.918 91.5965 88.918C90.5852 88.918 90.0932 88.5217 90.1205 87.729L91.3505 65.507ZM91.2685 60.095C91.2139 60.4777 91.3095 60.7647 91.5555 60.956C91.8289 61.1473 92.1842 61.243 92.6215 61.243C93.3595 61.243 94.1112 61.038 94.8765 60.628C95.6419 60.218 96.0655 59.726 96.1475 59.152C96.3662 57.7853 96.5165 56.7603 96.5985 56.077C96.7079 55.3937 96.2842 55.052 95.3275 55.052C94.5895 55.052 93.8242 55.257 93.0315 55.667C92.2389 56.077 91.8152 56.5417 91.7605 57.061L91.2685 60.095ZM112.174 69.648C111.655 69.2107 110.753 68.6367 109.468 67.926C108.211 67.188 107.241 66.819 106.557 66.819C106.011 66.819 105.737 67.0923 105.737 67.639C105.737 67.8303 105.806 68.1583 105.942 68.623C106.134 69.2517 106.557 69.853 107.213 70.427C107.869 70.9737 108.73 71.616 109.796 72.354C110.671 72.9553 111.231 73.3653 111.477 73.584C112.68 74.6227 113.637 75.4973 114.347 76.208C115.058 76.8913 115.7 77.7113 116.274 78.668C116.876 79.5973 117.176 80.554 117.176 81.538C117.176 82.194 117.012 82.8773 116.684 83.588C116.056 84.8727 115.017 85.8567 113.568 86.54C112.147 87.2233 110.63 87.565 109.017 87.565C108.471 87.565 107.924 87.524 107.377 87.442C103.66 86.8133 100.23 84.3397 97.0864 80.021C96.9224 79.775 96.8404 79.529 96.8404 79.283C96.8404 78.6817 97.2367 78.135 98.0294 77.643C98.8494 77.1237 99.6557 76.864 100.448 76.864C101.05 76.864 101.487 77.0417 101.76 77.397C103.455 79.693 105.122 81.374 106.762 82.44C108.266 83.424 109.537 83.916 110.575 83.916C111.423 83.916 111.846 83.547 111.846 82.809C111.846 82.2897 111.641 81.6473 111.231 80.882C110.821 80.144 110.288 79.447 109.632 78.791C108.976 78.135 108.143 77.3833 107.131 76.536L106.024 75.593C105.915 75.4837 105.409 75.0873 104.507 74.404C103.769 73.8573 103.141 73.3517 102.621 72.887C102.102 72.4223 101.665 71.9167 101.309 71.37C100.845 70.632 100.612 69.8667 100.612 69.074C100.612 67.844 101.132 66.7233 102.17 65.712C103.236 64.6733 104.453 63.9627 105.819 63.58C106.694 63.334 107.528 63.211 108.32 63.211C109.796 63.211 111.218 63.5527 112.584 64.236C113.978 64.9193 115.386 65.8623 116.807 67.065C117.053 67.2563 117.176 67.4887 117.176 67.762C117.176 68.2813 116.753 68.787 115.905 69.279C115.058 69.771 114.224 70.017 113.404 70.017C112.858 70.017 112.448 69.894 112.174 69.648ZM130.475 75.757C130.885 74.7183 131.09 73.7207 131.09 72.764C131.09 71.5067 130.735 70.4817 130.024 69.689C128.958 68.4317 127.168 67.8303 124.653 67.885C124.161 72.2037 123.779 77.4107 123.505 83.506C125.063 82.686 126.457 81.6063 127.687 80.267C128.917 78.9003 129.847 77.397 130.475 75.757ZM125.063 64.687C125.364 64.6597 125.829 64.646 126.457 64.646C129.792 64.646 132.279 65.466 133.919 67.106C135.149 68.3087 135.764 69.853 135.764 71.739C135.764 72.723 135.546 73.8983 135.108 75.265C134.206 77.8343 132.703 80.144 130.598 82.194C128.494 84.2167 126.088 85.761 123.382 86.827C123.273 89.615 123.191 92.0477 123.136 94.125C123.082 96.2297 123.041 97.979 123.013 99.373C122.986 102.708 122.904 106.056 122.767 109.418C122.74 109.992 122.33 110.498 121.537 110.935C120.745 111.372 119.938 111.591 119.118 111.591C118.162 111.591 117.683 111.236 117.683 110.525L117.724 107.245C117.752 106.179 117.793 103.61 117.847 99.537C117.929 95.4643 118.052 91.665 118.216 88.139C117.478 88.221 116.754 88.262 116.043 88.262C115.524 88.262 115.141 88.18 114.895 88.016C114.622 87.852 114.485 87.6333 114.485 87.36C114.485 86.868 114.827 86.3487 115.51 85.802C116.166 85.2553 116.836 84.982 117.519 84.982C117.902 84.982 118.175 84.9683 118.339 84.941C118.64 79.0643 119.105 73.42 119.733 68.008C119.542 67.8987 119.446 67.721 119.446 67.475C119.446 67.147 119.624 66.7643 119.979 66.327C119.979 66.163 120.007 65.8897 120.061 65.507C120.143 64.933 120.581 64.441 121.373 64.031C122.166 63.5937 122.931 63.375 123.669 63.375C124.134 63.375 124.489 63.4707 124.735 63.662C125.009 63.8533 125.118 64.1403 125.063 64.523V64.687ZM140.501 55.052C140.556 54.5327 140.993 54.068 141.813 53.658C142.633 53.2207 143.412 53.002 144.15 53.002C145.025 53.002 145.448 53.33 145.421 53.986C144.984 58.8787 144.259 65.63 143.248 74.24C142.592 80.1167 142.168 83.9297 141.977 85.679C141.922 86.253 141.485 86.7723 140.665 87.237C139.872 87.6743 139.093 87.893 138.328 87.893C137.262 87.893 136.77 87.4967 136.852 86.704C137.809 77.3013 139.025 66.7507 140.501 55.052ZM154.246 75.101L153.918 75.921L156.788 78.34L156.501 77.151C156.31 76.3857 155.927 74.7593 155.353 72.272L154.246 75.101ZM158.92 63.129C159.303 65.507 159.781 67.926 160.355 70.386C160.957 72.8187 161.681 75.6203 162.528 78.791C163.321 81.7977 163.84 83.793 164.086 84.777C164.114 84.859 164.127 84.982 164.127 85.146C164.127 85.802 163.758 86.376 163.02 86.868C162.282 87.3327 161.517 87.565 160.724 87.565C160.068 87.565 159.563 87.3873 159.207 87.032C158.415 86.1847 157.581 85.3783 156.706 84.613C155.832 83.8477 154.684 82.9047 153.262 81.784L151.909 80.677C150.761 83.137 149.873 84.9547 149.244 86.13C149.053 86.54 148.547 86.9227 147.727 87.278C146.935 87.606 146.197 87.77 145.513 87.77C144.748 87.77 144.365 87.524 144.365 87.032C144.365 86.8953 144.406 86.7313 144.488 86.54C145.308 84.5173 146.279 82.194 147.399 79.57L148.26 77.479C147.577 76.7957 147.235 76.454 147.235 76.454C147.044 76.2627 146.948 76.044 146.948 75.798C146.948 75.3333 147.249 74.896 147.85 74.486C148.452 74.0487 149.121 73.7617 149.859 73.625C151.171 70.4817 152.401 67.2837 153.549 64.031C153.659 63.6483 154 63.3203 154.574 63.047C155.176 62.7463 155.804 62.555 156.46 62.473C156.925 62.3363 157.321 62.268 157.649 62.268C158.415 62.268 158.838 62.555 158.92 63.129ZM171.878 64.072C171.823 63.498 172.179 62.9923 172.944 62.555C173.737 62.0903 174.516 61.858 175.281 61.858C176.128 61.858 176.593 62.145 176.675 62.719C177.276 67.0923 177.741 70.8507 178.069 73.994C178.397 77.1373 178.561 80.2533 178.561 83.342C178.561 87.4967 178.233 91.173 177.577 94.371C177.058 96.913 176.306 99.1953 175.322 101.218C174.338 103.241 172.985 104.812 171.263 105.933C169.842 106.835 168.407 107.286 166.958 107.286C165.619 107.286 164.307 106.931 163.022 106.22C161.737 105.537 160.535 104.594 159.414 103.391C159.195 103.118 159.086 102.885 159.086 102.694C159.086 102.147 159.482 101.628 160.275 101.136C161.04 100.671 161.819 100.439 162.612 100.439C163.159 100.439 163.582 100.589 163.883 100.89C164.02 101.027 164.348 101.368 164.867 101.915C165.386 102.462 165.919 102.926 166.466 103.309C167.04 103.692 167.559 103.883 168.024 103.883C168.27 103.883 168.448 103.856 168.557 103.801C169.076 103.61 169.527 103.159 169.91 102.448C170.32 101.737 170.648 101.081 170.894 100.48C171.14 99.8787 171.29 99.5097 171.345 99.373C172.001 97.733 172.479 95.9973 172.78 94.166C173.081 92.362 173.286 90.3393 173.395 88.098C173.45 86.3487 173.477 85.023 173.477 84.121C172.766 85.4057 171.933 86.417 170.976 87.155C170.019 87.8657 168.858 88.221 167.491 88.221C165.55 88.221 164.279 87.36 163.678 85.638C163.104 83.8887 162.803 81.7567 162.776 79.242L162.735 77.602C162.735 73.338 163.172 69.3337 164.047 65.589C164.156 65.0697 164.621 64.605 165.441 64.195C166.261 63.785 167.04 63.58 167.778 63.58C168.161 63.58 168.461 63.662 168.68 63.826C168.899 63.99 168.981 64.2223 168.926 64.523C168.297 67.6937 167.901 71.124 167.737 74.814C167.682 75.962 167.655 76.8503 167.655 77.479C167.655 78.5177 167.723 79.6793 167.86 80.964C168.024 82.112 168.215 82.932 168.434 83.424L168.762 84.08C168.953 83.7247 169.213 83.1917 169.541 82.481C170.224 80.7317 170.771 78.627 171.181 76.167L171.55 74.158C172.069 71.7253 172.329 69.7983 172.329 68.377C172.329 67.6663 172.302 67.1333 172.247 66.778L171.878 64.072Z" fill="#1E1E1E"/>
<path d="M4.65625 151V128.656H13.7188C18.2812 128.656 20.5625 130.651 20.5625 134.641C20.5625 138.984 17.4427 141.635 11.2031 142.594L10.6094 140.156C15.1927 139.479 17.4844 137.682 17.4844 134.766C17.4844 132.286 16.1406 131.047 13.4531 131.047H7.54688V151H4.65625ZM23.3125 146.047C23.3125 142.682 25.5312 141 29.9688 141C31.3958 141 32.8229 141.104 34.25 141.312V139.766C34.25 137.88 32.776 136.938 29.8281 136.938C28.1406 136.938 26.4115 137.198 24.6406 137.719V135.375C26.4115 134.854 28.1406 134.594 29.8281 134.594C34.7031 134.594 37.1406 136.292 37.1406 139.688V151H35.5156L34.5156 149.375C32.8802 150.458 31.099 151 29.1719 151C25.2656 151 23.3125 149.349 23.3125 146.047ZM29.9688 143.344C27.4583 143.344 26.2031 144.229 26.2031 146C26.2031 147.771 27.1927 148.656 29.1719 148.656C31.1719 148.656 32.8646 148.125 34.25 147.062V143.656C32.8229 143.448 31.3958 143.344 29.9688 143.344ZM41.8438 151V134.594H43.7969L44.3125 136.688C45.75 135.292 47.4792 134.594 49.5 134.594V137C47.5417 137 45.9531 137.693 44.7344 139.078V151H41.8438ZM52.4062 151V134.594H54.3594L54.875 136.688C56.3125 135.292 58.0417 134.594 60.0625 134.594V137C58.1042 137 56.5156 137.693 55.2969 139.078V151H52.4062ZM62.1875 146.047C62.1875 142.682 64.4062 141 68.8438 141C70.2708 141 71.6979 141.104 73.125 141.312V139.766C73.125 137.88 71.651 136.938 68.7031 136.938C67.0156 136.938 65.2865 137.198 63.5156 137.719V135.375C65.2865 134.854 67.0156 134.594 68.7031 134.594C73.5781 134.594 76.0156 136.292 76.0156 139.688V151H74.3906L73.3906 149.375C71.7552 150.458 69.974 151 68.0469 151C64.1406 151 62.1875 149.349 62.1875 146.047ZM68.8438 143.344C66.3333 143.344 65.0781 144.229 65.0781 146C65.0781 147.771 66.0677 148.656 68.0469 148.656C70.0469 148.656 71.7396 148.125 73.125 147.062V143.656C71.6979 143.448 70.2708 143.344 68.8438 143.344ZM80.7188 151V133.797C80.7188 129.828 82.9688 127.844 87.4688 127.844C88.7083 127.844 89.875 128.052 90.9688 128.469V130.812C89.9375 130.396 88.7656 130.188 87.4531 130.188C84.8906 130.188 83.6094 131.349 83.6094 133.672V134.594H88.6875V136.938H83.6094V151H80.7188ZM93.9531 142.734C93.9531 146.682 95.5938 148.656 98.875 148.656C102.156 148.656 103.797 146.682 103.797 142.734C103.797 138.87 102.156 136.938 98.875 136.938C95.5938 136.938 93.9531 138.87 93.9531 142.734ZM91.0625 142.797C91.0625 137.328 93.6667 134.594 98.875 134.594C104.083 134.594 106.688 137.328 106.688 142.797C106.688 148.255 104.083 150.984 98.875 150.984C93.6875 150.984 91.0833 148.255 91.0625 142.797ZM110.438 150.219V147.719C112.365 148.344 114.312 148.656 116.281 148.656C118.896 148.656 120.203 147.875 120.203 146.312C120.203 144.854 119.292 144.125 117.469 144.125H115.125C111.583 144.125 109.812 142.51 109.812 139.281C109.812 136.156 112.089 134.594 116.641 134.594C118.599 134.594 120.542 134.854 122.469 135.375V137.875C120.542 137.25 118.599 136.938 116.641 136.938C113.911 136.938 112.547 137.719 112.547 139.281C112.547 140.74 113.406 141.469 115.125 141.469H117.469C121.219 141.469 123.094 143.083 123.094 146.312C123.094 149.438 120.823 151 116.281 151C114.312 151 112.365 150.74 110.438 150.219ZM141.844 141.625V143.969H134.031V141.625H141.844ZM153.406 150.219V147.719C155.333 148.344 157.281 148.656 159.25 148.656C161.865 148.656 163.172 147.875 163.172 146.312C163.172 144.854 162.26 144.125 160.438 144.125H158.094C154.552 144.125 152.781 142.51 152.781 139.281C152.781 136.156 155.057 134.594 159.609 134.594C161.568 134.594 163.51 134.854 165.438 135.375V137.875C163.51 137.25 161.568 136.938 159.609 136.938C156.88 136.938 155.516 137.719 155.516 139.281C155.516 140.74 156.375 141.469 158.094 141.469H160.438C164.188 141.469 166.062 143.083 166.062 146.312C166.062 149.438 163.792 151 159.25 151C157.281 151 155.333 150.74 153.406 150.219ZM169.188 146.047C169.188 142.682 171.406 141 175.844 141C177.271 141 178.698 141.104 180.125 141.312V139.766C180.125 137.88 178.651 136.938 175.703 136.938C174.016 136.938 172.286 137.198 170.516 137.719V135.375C172.286 134.854 174.016 134.594 175.703 134.594C180.578 134.594 183.016 136.292 183.016 139.688V151H181.391L180.391 149.375C178.755 150.458 176.974 151 175.047 151C171.141 151 169.188 149.349 169.188 146.047ZM175.844 143.344C173.333 143.344 172.078 144.229 172.078 146C172.078 147.771 173.068 148.656 175.047 148.656C177.047 148.656 178.74 148.125 180.125 147.062V143.656C178.698 143.448 177.271 143.344 175.844 143.344ZM187.719 151V134.594H189.672L190.188 136.688C191.865 135.292 193.708 134.594 195.719 134.594C199.812 134.594 201.859 136.63 201.859 140.703V151H198.969V140.656C198.969 138.219 197.755 137 195.328 137C193.672 137 192.099 137.693 190.609 139.078V151H187.719ZM206.406 150.219V147.719C208.333 148.344 210.281 148.656 212.25 148.656C214.865 148.656 216.172 147.875 216.172 146.312C216.172 144.854 215.26 144.125 213.438 144.125H211.094C207.552 144.125 205.781 142.51 205.781 139.281C205.781 136.156 208.057 134.594 212.609 134.594C214.568 134.594 216.51 134.854 218.438 135.375V137.875C216.51 137.25 214.568 136.938 212.609 136.938C209.88 136.938 208.516 137.719 208.516 139.281C208.516 140.74 209.375 141.469 211.094 141.469H213.438C217.188 141.469 219.062 143.083 219.062 146.312C219.062 149.438 216.792 151 212.25 151C210.281 151 208.333 150.74 206.406 150.219ZM222.188 146.047C222.188 142.682 224.406 141 228.844 141C230.271 141 231.698 141.104 233.125 141.312V139.766C233.125 137.88 231.651 136.938 228.703 136.938C227.016 136.938 225.286 137.198 223.516 137.719V135.375C225.286 134.854 227.016 134.594 228.703 134.594C233.578 134.594 236.016 136.292 236.016 139.688V151H234.391L233.391 149.375C231.755 150.458 229.974 151 228.047 151C224.141 151 222.188 149.349 222.188 146.047ZM228.844 143.344C226.333 143.344 225.078 144.229 225.078 146C225.078 147.771 226.068 148.656 228.047 148.656C230.047 148.656 231.74 148.125 233.125 147.062V143.656C231.698 143.448 230.271 143.344 228.844 143.344ZM240.719 131.938H242.531L243.156 134.594H247.594V136.938H243.609V146.359C243.609 147.891 244.271 148.656 245.594 148.656H247.594V151H244.844C242.094 151 240.719 149.526 240.719 146.578V131.938ZM254.484 134.594V151H251.594V134.594H254.484ZM254.484 128.656V131.391H251.594V128.656H254.484ZM261.609 142.734C261.609 146.682 263.25 148.656 266.531 148.656C269.812 148.656 271.453 146.682 271.453 142.734C271.453 138.87 269.812 136.938 266.531 136.938C263.25 136.938 261.609 138.87 261.609 142.734ZM258.719 142.797C258.719 137.328 261.323 134.594 266.531 134.594C271.74 134.594 274.344 137.328 274.344 142.797C274.344 148.255 271.74 150.984 266.531 150.984C261.344 150.984 258.74 148.255 258.719 142.797ZM278.25 151V134.594H280.203L280.719 136.688C282.396 135.292 284.24 134.594 286.25 134.594C290.344 134.594 292.391 136.63 292.391 140.703V151H289.5V140.656C289.5 138.219 288.286 137 285.859 137C284.203 137 282.63 137.693 281.141 139.078V151H278.25Z" fill="#1E1E1E"/>
</svg>
