<svg width="1387" height="165" viewBox="0 0 1387 165" fill="none" xmlns="http://www.w3.org/2000/svg">
<path d="M67.7344 7.70264C69.4196 7.77924 70.2622 8.62182 70.2622 10.2304C70.2622 11.5326 69.8409 13.0263 68.9983 14.7114C68.1557 16.3966 67.3131 17.7371 66.4706 18.7329C64.862 20.7244 63.0236 22.0649 60.9554 22.7543C58.8873 23.4437 56.5127 23.7884 53.8317 23.7884C52.9126 23.7884 51.4572 23.7118 49.4656 23.5586C47.0145 23.4054 45.1761 23.3671 43.9505 23.4437C43.3377 23.4437 42.61 23.4437 41.7674 23.4437C41.0014 23.4437 40.4653 23.5969 40.1589 23.9033C39.9291 24.2097 39.6227 24.8991 39.2397 25.9715C39.0099 26.7374 38.8567 27.7332 38.7801 28.9588C38.7801 30.1844 38.7801 31.0653 38.7801 31.6015L37.9758 44.3552C37.746 48.7979 37.5928 52.7044 37.5162 56.0748C37.4396 59.3685 37.363 62.1261 37.2864 64.3475C37.2864 67.3348 37.2481 69.5562 37.1715 71.0116C37.7843 70.8584 38.2056 70.7818 38.4354 70.7818C40.1206 70.7818 40.9631 72.0839 40.9631 74.6883C40.9631 76.5267 40.6568 78.4799 40.044 80.5481C39.5078 82.6163 38.8184 84.9142 37.9758 87.442C37.5162 88.7442 36.5204 90.506 34.9884 92.7273C33.5331 94.8721 31.8862 96.7488 30.0478 98.3573C28.2094 99.9659 26.6009 100.77 25.2221 100.77C23.4603 100.77 22.273 99.3914 21.6602 96.6339C21.0475 93.9529 20.7411 90.7358 20.7411 86.9824C20.7411 82.7695 21.1624 77.4459 22.0049 71.0116L22.8092 62.7389C23.9582 47.8021 25.3753 35.6229 27.0605 26.2013C26.6009 26.3544 25.337 26.7757 23.2688 27.4651C21.2772 28.0779 19.4389 28.8056 17.7537 29.6482C16.0685 30.4908 14.7663 31.3717 13.8472 32.2909C12.8514 33.3632 11.9705 34.742 11.2045 36.4272C10.2087 38.1124 9.32783 39.4146 8.56185 40.3337C7.87246 41.2529 6.83837 41.9806 5.45959 42.5168C4.61701 42.8998 3.77442 43.0913 2.93183 43.0913C1.32326 43.0913 0.518969 42.0955 0.518969 40.1039C0.518969 38.8018 0.825364 37.2698 1.43815 35.508C2.05095 33.7462 2.70204 32.3292 3.39142 31.2568C8.52355 22.8309 16.4132 16.7796 27.0605 13.1029C37.7077 9.34951 48.9677 7.47284 60.8405 7.47284C62.5257 7.47284 64.8237 7.54944 67.7344 7.70264ZM65.3225 35.1633C65.3991 33.6313 66.5097 32.2909 68.6545 31.1419C70.7993 29.9163 72.944 29.3035 75.0888 29.3035C76.3144 29.3035 77.3102 29.5716 78.0762 30.1078C78.8422 30.5674 79.1869 31.3334 79.1103 32.4058L75.7782 94.7955C75.7016 96.4041 74.5909 97.8211 72.4462 99.0467C70.3014 100.196 68.1566 100.77 66.0119 100.77C63.1777 100.77 61.7989 99.6595 61.8755 97.4382L65.3225 35.1633ZM65.0927 19.9967C64.9395 21.0691 65.2076 21.8734 65.897 22.4096C66.6629 22.9458 67.6587 23.2139 68.8843 23.2139C70.9525 23.2139 73.0589 22.6394 75.2037 21.4904C77.3485 20.3414 78.5358 18.9627 78.7656 17.3541C79.3783 13.5241 79.7996 10.6517 80.0294 8.73672C80.3358 6.82175 79.1486 5.86426 76.4676 5.86426C74.3994 5.86426 72.2547 6.43876 70.0333 7.58774C67.8119 8.73672 66.6246 10.0389 66.4714 11.4943L65.0927 19.9967ZM119.574 28.4992C121.183 28.346 122.408 28.5375 123.251 29.0737C124.17 29.6099 125.128 30.644 126.123 32.176C126.736 33.1717 127.043 34.0143 127.043 34.7037C127.043 36.3889 125.97 37.3847 123.825 37.6911L119.804 38.1507C116.051 38.6869 114.059 38.955 113.829 38.955C112.527 51.2108 111.493 61.858 110.727 70.8967C109.961 79.9353 109.463 88.8591 109.233 97.668C109.157 98.7403 108.697 99.5446 107.855 100.081C107.089 100.617 106.054 100.885 104.752 100.885C102.454 100.885 100.156 100.272 97.8584 99.0467C95.637 97.7446 94.5647 96.2892 94.6413 94.6806C94.8711 86.5611 95.3306 78.2884 96.02 69.8626C96.7094 61.3601 97.6286 51.5172 98.7776 40.3337L91.539 41.2529C90.4666 41.3295 89.624 41.2912 89.0112 41.138C88.4751 40.9082 87.9389 40.4486 87.4027 39.7592C86.8665 39.0699 86.3303 38.3039 85.7941 37.4613C85.1813 36.6187 84.8749 35.7761 84.8749 34.9335C84.8749 34.2441 85.143 33.6313 85.6792 33.0951C86.2154 32.559 87.0197 32.2143 88.0921 32.0611C89.7772 31.8313 91.7305 31.5632 93.9519 31.2568L99.8117 30.4525L101.88 10.5751C102.11 8.43032 103.68 7.35794 106.591 7.35794C108.889 7.35794 111.11 8.00903 113.255 9.31121C115.476 10.5368 116.51 11.9539 116.357 13.5624L114.863 28.9588C117.008 28.8056 118.578 28.6524 119.574 28.4992ZM159.03 35.1633C159.107 33.6313 160.179 32.2909 162.247 31.1419C164.392 29.9163 166.537 29.3035 168.681 29.3035C169.907 29.3035 170.903 29.5716 171.669 30.1078C172.435 30.5674 172.78 31.3334 172.703 32.4058C172.55 35.3165 172.473 37.6528 172.473 39.4146C172.09 49.3724 171.401 57.8366 170.405 64.8071C169.486 71.7776 167.379 78.3267 164.086 84.4547C160.792 90.5826 155.889 94.604 149.379 96.519C147.157 97.1318 145.051 97.4382 143.059 97.4382C138.157 97.4382 133.829 95.9828 130.076 93.072C126.399 90.1613 124.292 86.2164 123.756 81.2375C123.603 79.2459 123.526 77.7523 123.526 76.7565C123.526 71.4712 124.331 66.0709 125.939 60.5558C127.548 55.0407 129.884 48.3766 132.948 40.5635C133.867 38.4954 134.901 35.8527 136.05 32.6356C136.51 31.3334 137.659 30.261 139.497 29.4184C141.412 28.4992 143.289 28.0396 145.127 28.0396C146.353 28.0396 147.349 28.3077 148.115 28.8439C148.881 29.3035 149.264 29.9929 149.264 30.9121C149.264 31.2185 149.187 31.6781 149.034 32.2909C147.502 36.7336 146.315 40.0656 145.472 42.287C143.251 48.4915 141.527 53.7002 140.302 57.9132C139.076 62.0495 138.233 66.3007 137.774 70.6669C137.621 72.5052 137.544 73.9606 137.544 75.033C137.544 79.5523 138.655 82.8078 140.876 84.7994C141.566 85.4887 142.485 86.1398 143.634 86.7526C144.783 87.2888 145.855 87.5952 146.851 87.6718L147.77 87.9016C147.847 87.9016 148 87.7867 148.23 87.5569C150.145 86.3313 151.677 84.2632 152.826 81.3524C154.051 78.365 154.855 75.7224 155.238 73.4244C155.621 71.1265 156.158 67.488 156.847 62.5091C157.383 58.4494 157.804 54.0066 158.111 49.1809C158.494 44.3552 158.8 39.6826 159.03 35.1633ZM185.442 5.86426C185.595 4.40889 186.821 3.10671 189.119 1.95773C191.417 0.732147 193.6 0.119357 195.668 0.119357C198.119 0.119357 199.307 1.03854 199.23 2.87691C198.004 16.5881 195.975 35.508 193.14 59.6366C191.302 76.1054 190.115 86.7909 189.579 91.6932C189.425 93.3018 188.2 94.7572 185.902 96.0594C183.681 97.285 181.497 97.8977 179.353 97.8977C176.365 97.8977 174.987 96.7871 175.216 94.5657C177.897 68.2157 181.306 38.6486 185.442 5.86426ZM235.223 72.3903C236.985 68.254 237.865 64.0028 237.865 59.6366C237.865 56.1897 237.253 53.0491 236.027 50.215C234.878 47.3042 233.04 44.9297 230.512 43.0913C228.827 41.8657 227.218 41.2529 225.686 41.2529C225.073 41.2529 224.307 41.4061 223.388 41.7125C224.078 42.0189 224.422 42.5551 224.422 43.3211C224.422 43.7807 224.269 44.3169 223.963 44.9297C222.201 48.3 220.822 51.9768 219.826 55.9599C218.831 59.8664 218.333 63.8113 218.333 67.7944C218.333 72.3903 219.022 76.7565 220.401 80.8928C221.32 83.1908 222.278 84.9908 223.273 86.293C223.733 86.8292 224.193 87.2122 224.652 87.442C226.874 85.91 228.865 83.7653 230.627 81.0077C232.465 78.2502 233.997 75.3777 235.223 72.3903ZM233.614 32.0611C237.368 32.8271 240.585 34.4739 243.266 37.0017C245.947 39.5294 247.977 42.5934 249.355 46.1935C250.734 49.7171 251.423 53.3938 251.423 57.2238C251.423 61.7431 250.543 66.3773 248.781 71.1265C247.019 75.8756 244.606 80.2417 241.542 84.2249C238.478 88.208 235.07 91.3485 231.316 93.6465C227.793 95.7913 224.346 96.8637 220.975 96.8637C217.605 96.8637 214.656 95.8296 212.128 93.7614C209.601 91.6932 207.762 88.7059 206.613 84.7994C205.311 80.8162 204.66 76.3352 204.66 71.3563C204.66 68.3689 204.89 65.4581 205.349 62.624C204.813 62.7772 204.009 62.8538 202.936 62.8538C200.332 62.8538 199.03 61.9729 199.03 60.2111C199.03 59.5983 199.106 59.1004 199.26 58.7175C201.864 51.4406 205.771 45.1212 210.979 39.7592C216.265 34.3207 222.316 31.6015 229.133 31.6015C230.129 31.6015 231.623 31.7547 233.614 32.0611ZM296.697 46.768C295.242 45.5425 292.714 43.9339 289.114 41.9423C285.59 39.8741 282.871 38.8401 280.956 38.8401C279.424 38.8401 278.658 39.606 278.658 41.138C278.658 41.6742 278.849 42.5934 279.232 43.8956C279.769 45.6574 280.956 47.3425 282.794 48.9511C284.633 50.4831 287.046 52.2832 290.033 54.3513C292.484 56.0365 294.054 57.1855 294.744 57.7983C298.114 60.709 300.795 63.1602 302.787 65.1518C304.778 67.0667 306.578 69.3647 308.187 72.0456C309.872 74.65 310.715 77.331 310.715 80.0885C310.715 81.9269 310.255 83.8419 309.336 85.8334C307.574 89.4336 304.663 92.1911 300.603 94.1061C296.62 96.0211 292.369 96.9786 287.85 96.9786C286.318 96.9786 284.786 96.8637 283.254 96.6339C272.836 94.8721 263.223 87.9399 254.414 75.8373C253.955 75.1479 253.725 74.4585 253.725 73.7691C253.725 72.0839 254.836 70.552 257.057 69.1732C259.355 67.7178 261.615 66.9901 263.836 66.9901C265.521 66.9901 266.747 67.488 267.513 68.4838C272.262 74.9181 276.934 79.6289 281.53 82.6163C285.743 85.3738 289.305 86.7526 292.216 86.7526C294.59 86.7526 295.778 85.7185 295.778 83.6504C295.778 82.195 295.203 80.3949 294.054 78.2502C292.905 76.182 291.412 74.2287 289.573 72.3903C287.735 70.552 285.399 68.4455 282.564 66.0709L279.462 63.4283C279.156 63.1219 277.739 62.0112 275.211 60.0962C273.143 58.5643 271.381 57.1472 269.926 55.845C268.47 54.5428 267.245 53.1257 266.249 51.5938C264.947 49.5256 264.296 47.3808 264.296 45.1595C264.296 41.7125 265.751 38.572 268.662 35.7378C271.649 32.8271 275.058 30.8355 278.888 29.7631C281.339 29.0737 283.675 28.729 285.897 28.729C290.033 28.729 294.016 29.6865 297.846 31.6015C301.752 33.5164 305.697 36.1591 309.68 39.5294C310.37 40.0656 310.715 40.7167 310.715 41.4827C310.715 42.9381 309.527 44.3552 307.153 45.734C304.778 47.1127 302.442 47.8021 300.144 47.8021C298.612 47.8021 297.463 47.4574 296.697 46.768ZM350.211 62.7389C348.296 62.4325 347.338 61.7814 347.338 60.7856C347.338 59.943 348.066 58.9472 349.521 57.7983C350.977 56.6493 352.624 55.7301 354.462 55.0407C356.3 54.2747 357.794 53.9683 358.943 54.1215C363.539 54.8109 368.02 55.1556 372.386 55.1556C377.595 55.1556 382.919 54.696 388.357 53.7768C389.966 53.547 391 53.4321 391.459 53.4321C393.834 53.4321 395.059 54.313 395.136 56.0748C395.213 57.4536 394.255 58.6792 392.264 59.7515C390.349 60.8239 388.549 61.5133 386.863 61.8197C380.659 63.3517 373.918 64.1177 366.641 64.1177C361.05 64.1177 355.573 63.6581 350.211 62.7389ZM477.909 46.768C476.453 45.5425 473.925 43.9339 470.325 41.9423C466.802 39.8741 464.082 38.8401 462.167 38.8401C460.635 38.8401 459.869 39.606 459.869 41.138C459.869 41.6742 460.061 42.5934 460.444 43.8956C460.98 45.6574 462.167 47.3425 464.006 48.9511C465.844 50.4831 468.257 52.2832 471.244 54.3513C473.696 56.0365 475.266 57.1855 475.955 57.7983C479.326 60.709 482.007 63.1602 483.998 65.1518C485.99 67.0667 487.79 69.3647 489.398 72.0456C491.084 74.65 491.926 77.331 491.926 80.0885C491.926 81.9269 491.467 83.8419 490.547 85.8334C488.786 89.4336 485.875 92.1911 481.815 94.1061C477.832 96.0211 473.581 96.9786 469.061 96.9786C467.529 96.9786 465.997 96.8637 464.465 96.6339C454.048 94.8721 444.435 87.9399 435.626 75.8373C435.166 75.1479 434.937 74.4585 434.937 73.7691C434.937 72.0839 436.047 70.552 438.269 69.1732C440.567 67.7178 442.826 66.9901 445.048 66.9901C446.733 66.9901 447.958 67.488 448.724 68.4838C453.473 74.9181 458.146 79.6289 462.742 82.6163C466.955 85.3738 470.517 86.7526 473.427 86.7526C475.802 86.7526 476.989 85.7185 476.989 83.6504C476.989 82.195 476.415 80.3949 475.266 78.2502C474.117 76.182 472.623 74.2287 470.785 72.3903C468.946 70.552 466.61 68.4455 463.776 66.0709L460.674 63.4283C460.367 63.1219 458.95 62.0112 456.423 60.0962C454.354 58.5643 452.593 57.1472 451.137 55.845C449.682 54.5428 448.456 53.1257 447.46 51.5938C446.158 49.5256 445.507 47.3808 445.507 45.1595C445.507 41.7125 446.963 38.572 449.873 35.7378C452.861 32.8271 456.269 30.8355 460.099 29.7631C462.55 29.0737 464.887 28.729 467.108 28.729C471.244 28.729 475.228 29.6865 479.057 31.6015C482.964 33.5164 486.909 36.1591 490.892 39.5294C491.581 40.0656 491.926 40.7167 491.926 41.4827C491.926 42.9381 490.739 44.3552 488.364 45.734C485.99 47.1127 483.653 47.8021 481.355 47.8021C479.823 47.8021 478.674 47.4574 477.909 46.768ZM543.558 84.7994C544.707 85.1823 545.281 85.8717 545.281 86.8675C545.281 88.0931 544.553 89.4336 543.098 90.889C541.489 92.4975 539.421 93.3018 536.894 93.3018C535.668 93.3018 534.634 93.1486 533.791 92.8422C529.732 91.54 526.055 90.889 522.761 90.889C517.016 90.889 511.156 92.7273 505.182 96.4041C504.186 97.0935 502.96 97.668 501.505 98.1275C500.126 98.5105 498.824 98.702 497.598 98.702C496.449 98.702 495.53 98.5105 494.841 98.1275C494.151 97.668 493.807 96.9786 493.807 96.0594C493.807 95.5232 493.883 95.0636 494.036 94.6806C496.258 88.4761 498.02 82.8844 499.322 77.9055C500.701 72.9265 501.62 67.871 502.079 62.7389C502.769 55.845 503.113 50.7895 503.113 47.5723C503.113 39.0699 501.467 32.559 498.173 28.0396C497.79 27.58 497.598 26.9672 497.598 26.2013C497.598 24.6693 498.671 23.2522 500.815 21.95C502.96 20.5712 505.067 19.8819 507.135 19.8819C508.514 19.8819 509.509 20.1882 510.122 20.801C511.118 21.184 511.769 21.7968 512.075 22.6394C513.99 27.6949 516.633 31.9845 520.003 35.508C523.374 38.955 527.357 40.6784 531.953 40.6784C532.795 40.6784 534.059 40.5252 535.745 40.2188C536.817 40.0656 537.506 39.989 537.813 39.989C539.115 39.989 540.072 40.2954 540.685 40.9082C541.375 41.4444 541.719 42.2104 541.719 43.2062C541.719 44.2786 541.26 45.351 540.34 46.4233C539.498 47.4957 538.349 48.2617 536.894 48.7213C533.753 49.7937 530.612 50.3299 527.472 50.3299C523.719 50.3299 520.118 49.5639 516.671 48.0319C516.518 52.3214 516.327 55.5386 516.097 57.6834L515.293 64.922C518.28 64.3858 521.267 63.9262 524.255 63.5432L525.863 63.4283C528.927 63.4283 530.459 64.4624 530.459 66.5305C530.459 67.9093 529.693 69.1349 528.161 70.2073C526.629 71.2797 525.059 71.969 523.45 72.2754C521.076 72.735 517.82 73.2329 513.684 73.7691C512.841 77.5225 511.922 81.046 510.927 84.3398C515.982 82.5014 521.114 81.5822 526.323 81.5822C532.068 81.5822 537.813 82.6546 543.558 84.7994ZM563.489 77.1012C571.532 70.8967 577.851 64.3092 582.447 57.3387C576.319 55.5003 570.153 51.7853 563.948 46.1935C563.795 53.164 563.642 63.4666 563.489 77.1012ZM596.694 51.0193C597.231 51.4023 597.499 51.9002 597.499 52.5129C597.499 53.0491 597.346 53.5853 597.039 54.1215C592.979 61.9346 587.617 68.8668 580.953 74.9181C574.289 80.9694 566.208 87.0207 556.71 93.072C555.791 93.6082 554.757 94.1061 553.608 94.5657C552.459 94.9487 551.348 95.1402 550.276 95.1402C549.127 95.1402 548.131 94.8338 547.288 94.221C546.369 93.5316 545.909 92.689 545.909 91.6932C545.909 90.3911 546.637 89.2421 548.092 88.2463C548.246 88.1697 548.399 88.0548 548.552 87.9016C548.705 87.7484 548.935 87.5952 549.241 87.442L549.701 58.9472C549.854 52.7427 550.007 43.2828 550.161 30.5674C550.084 30.4142 550.046 30.1461 550.046 29.7631C550.046 29.6099 550.122 29.2269 550.276 28.6141V27.3502C550.352 25.8949 551.348 24.6693 553.263 23.6735C555.178 22.6011 557.208 22.0649 559.353 22.0649C560.808 22.0649 561.957 22.333 562.799 22.8692C563.719 23.4054 564.178 24.248 564.178 25.397V26.546C573.447 39.338 583.558 47.151 594.511 49.9852C595.66 50.3682 596.388 50.7129 596.694 51.0193ZM652.039 56.5344C652.116 56.611 652.154 56.7259 652.154 56.8791C652.691 61.7048 652.959 66.9135 652.959 72.5052C652.959 78.7097 652.576 84.6462 651.81 90.3145C651.58 91.8464 650.393 93.2252 648.248 94.4508C646.103 95.5998 643.997 96.1743 641.928 96.1743C640.703 96.1743 639.745 95.9445 639.056 95.4849C638.367 94.9487 638.06 94.1444 638.137 93.072C638.903 86.0249 639.286 79.7821 639.286 74.3436C636.911 80.3949 633.694 85.527 629.634 89.74C625.575 93.8763 620.864 95.9445 615.502 95.9445C614.353 95.9445 613.204 95.8296 612.055 95.5998C607.076 94.7572 603.514 92.4975 601.369 88.8208C599.225 85.0674 598.152 80.4715 598.152 75.033C598.152 69.6711 599.033 63.8496 600.795 57.5685C602.174 52.8193 604.203 48.2617 606.884 43.8956C609.642 39.4529 612.974 35.8144 616.881 32.9803C620.787 30.1461 625.077 28.729 629.749 28.729C633.732 28.729 636.643 29.495 638.481 31.027C640.32 32.559 641.239 34.5888 641.239 37.1166C641.239 40.2571 640.09 43.7424 637.792 47.5723C635.494 51.3257 633.043 54.1981 630.439 56.1897C629.673 56.7259 628.639 57.1855 627.336 57.5685C626.034 57.8749 624.77 58.0281 623.545 58.0281C622.166 58.0281 621.055 57.8366 620.213 57.4536C619.37 57.0706 618.949 56.5344 618.949 55.845C618.949 54.8492 619.715 53.7002 621.247 52.3981C622.243 51.5555 623.583 49.7554 625.268 46.9978C627.03 44.1637 627.911 41.9423 627.911 40.3337C627.911 38.8784 627.107 38.1507 625.498 38.1507C623.2 38.1507 620.481 41.5976 617.34 48.4915C615.578 51.9385 614.276 55.6918 613.434 59.7515C612.361 64.6539 611.825 69.1732 611.825 73.3095C611.825 80.7396 613.855 84.8376 617.915 85.6036C619.523 85.8334 621.094 84.6462 622.626 82.0418C624.234 79.3608 625.613 76.2203 626.762 72.6201C625.766 73.1563 624.272 73.884 622.281 74.8032C621.055 75.3394 619.715 75.6075 618.259 75.6075C616.727 75.6075 615.578 75.2245 614.812 74.4585C614.353 73.8457 614.123 73.2712 614.123 72.735C614.123 72.0456 614.315 71.3946 614.698 70.7818C615.157 70.0924 615.693 69.5562 616.306 69.1732C626.034 62.5091 635.303 57.1855 644.111 53.2023C644.801 52.8959 645.643 52.7427 646.639 52.7427C648.171 52.7427 649.512 53.1257 650.661 53.8917C651.81 54.5811 652.269 55.462 652.039 56.5344ZM710.413 27.2353C710.643 25.78 711.907 25.0523 714.205 25.0523C715.737 25.0523 717.384 25.397 719.145 26.0864C720.907 26.7757 722.363 27.7332 723.512 28.9588C724.661 30.1078 725.12 31.2951 724.89 32.5207C721.367 56.4961 715.047 78.7097 705.932 99.1616C705.319 100.54 703.979 101.23 701.911 101.23C700.609 101.23 699.077 100.962 697.315 100.426C692.642 98.9701 689.425 96.2126 687.663 92.1528C685.978 88.0165 684.944 82.961 684.561 76.9863L684.331 74.1138C681.574 79.9353 677.667 88.8208 672.612 100.77C671.922 102.302 670.505 103.068 668.36 103.068C666.828 103.068 665.22 102.685 663.535 101.919C661.85 101.153 660.471 100.196 659.398 99.0467C658.403 97.8977 657.981 96.7105 658.134 95.4849C659.13 88.8974 659.628 81.1992 659.628 72.3903C659.628 68.3306 659.475 62.3176 659.169 54.3513C658.862 46.385 658.709 40.4486 658.709 36.5421L658.824 31.2568C658.9 30.1844 659.322 29.3801 660.088 28.8439C660.93 28.3077 662.003 28.0396 663.305 28.0396C665.603 28.0396 667.901 28.6907 670.199 29.9929C672.497 31.2185 673.607 32.6356 673.531 34.2441L673.416 40.3337C673.416 44.8531 673.569 51.6321 673.876 60.6707C677.169 53.93 680.769 47.3042 684.676 40.7933C685.519 39.4145 687.089 38.7252 689.387 38.7252C691.608 38.7252 693.753 39.3379 695.821 40.5635C697.966 41.7891 699.077 43.2445 699.153 44.9297C699.23 46.0786 699.268 47.8404 699.268 50.215C699.268 52.2832 699.191 55.3854 699.038 59.5217C698.885 64.6539 698.847 68.4838 698.923 71.0116V74.8032C704.285 59.177 708.115 43.3211 710.413 27.2353ZM730.473 35.1633C730.549 33.6313 731.66 32.2909 733.805 31.1419C735.95 29.9163 738.094 29.3035 740.239 29.3035C741.465 29.3035 742.46 29.5716 743.226 30.1078C743.992 30.5674 744.337 31.3334 744.261 32.4058L740.928 94.7955C740.852 96.4041 739.741 97.8211 737.596 99.0467C735.452 100.196 733.307 100.77 731.162 100.77C728.328 100.77 726.949 99.6595 727.026 97.4382L730.473 35.1633ZM730.243 19.9967C730.09 21.0691 730.358 21.8734 731.047 22.4096C731.813 22.9458 732.809 23.2139 734.035 23.2139C736.103 23.2139 738.209 22.6394 740.354 21.4904C742.499 20.3414 743.686 18.9627 743.916 17.3541C744.529 13.5241 744.95 10.6517 745.18 8.73672C745.486 6.82175 744.299 5.86426 741.618 5.86426C739.55 5.86426 737.405 6.43876 735.184 7.58774C732.962 8.73672 731.775 10.0389 731.622 11.4943L730.243 19.9967ZM788.516 50.5597C788.823 49.0277 789.972 47.7255 791.963 46.6531C794.031 45.5808 796.061 45.0446 798.053 45.0446C800.657 45.0446 801.806 46.0403 801.5 48.0319L801.04 50.6746C799.891 57.1855 798.704 62.7006 797.478 67.2199C796.329 71.6627 794.529 75.9905 792.078 80.2034C789.703 84.4164 786.563 87.7484 782.656 90.1996C777.601 93.4167 772.43 95.0253 767.145 95.0253C764.005 95.0253 761.055 94.3742 758.298 93.072C755.617 91.7698 753.357 89.74 751.519 86.9824C748.302 82.2333 746.693 76.7948 746.693 70.6669C746.693 62.3942 749.642 52.8193 755.54 41.9423C757.532 38.189 759.6 35.2016 761.745 32.9803C763.966 30.7589 766.724 29.4184 770.018 28.9588C770.324 28.8822 770.745 28.8439 771.281 28.8439C772.507 28.8439 773.579 29.0737 774.499 29.5333C776.797 24.4778 778.558 20.6861 779.784 18.1584C780.32 17.0094 781.584 16.0136 783.576 15.171C785.644 14.3284 787.559 13.9071 789.32 13.9071C791.618 13.9071 792.767 14.6348 792.767 16.0902C792.767 16.3966 792.652 16.8562 792.423 17.469C787.137 30.3376 782.848 40.3337 779.554 47.4574C779.018 48.683 777.754 49.7171 775.762 50.5597C773.847 51.4023 771.971 51.8236 770.132 51.8236C768.907 51.8236 767.911 51.6321 767.145 51.2491C766.379 50.8661 765.996 50.2533 765.996 49.4107C765.996 48.8745 766.149 48.3 766.456 47.6872L768.179 43.7807C767.796 43.7041 767.451 43.5126 767.145 43.2062L764.847 48.6064C762.702 53.2789 761.285 57.9515 760.596 62.624C760.366 64.0794 760.251 65.573 760.251 67.105C760.251 70.3988 760.749 73.501 761.745 76.4118C762.741 79.3225 764.311 81.6588 766.456 83.4206C768.217 84.9525 769.941 85.7185 771.626 85.7185C778.367 85.7185 783.997 73.9989 788.516 50.5597ZM850.423 70.7818C851.725 80.3566 852.683 87.059 853.295 90.889C853.602 92.8039 852.759 94.4891 850.768 95.9445C848.776 97.3999 846.67 98.1275 844.448 98.1275C843.146 98.1275 842.074 97.8594 841.231 97.3233C840.388 96.7105 839.891 95.7913 839.737 94.5657L838.818 87.0973C837.746 78.6714 836.865 72.352 836.176 68.1391C835.793 65.6879 835.256 63.6581 834.567 62.0495C833.878 60.3643 832.767 59.1004 831.235 58.2579C830.239 57.7983 829.09 57.5685 827.788 57.5685C826.179 57.5685 824.379 57.8366 822.388 58.3728C821.009 69.8626 818.749 81.6205 815.609 93.6465C815.226 95.2551 813.847 96.6722 811.472 97.8977C809.174 99.0467 806.953 99.6212 804.808 99.6212C803.43 99.6212 802.395 99.3914 801.706 98.9318C801.017 98.3956 800.825 97.5914 801.132 96.519C804.502 84.4164 806.915 72.3137 808.37 60.2111C806.838 60.2111 805.498 59.943 804.349 59.4068C803.2 58.7941 802.625 58.0281 802.625 57.1089C802.625 56.0365 803.391 54.9641 804.923 53.8917L809.404 50.6746C810.017 43.8573 810.323 36.1208 810.323 27.4651C810.323 22.5628 810.209 17.6605 809.979 12.7582C809.902 11.2262 810.898 9.8474 812.966 8.62183C815.034 7.39624 817.179 6.78345 819.4 6.78345C820.626 6.78345 821.622 7.05155 822.388 7.58774C823.23 8.04733 823.69 8.81332 823.767 9.8857C824.073 15.0944 824.226 20.8776 824.226 27.2353C824.226 32.7505 824.15 36.8485 823.996 39.5294C826.754 37.0783 829.435 34.5122 832.039 31.8313L835.486 28.4992C836.559 27.5034 837.784 26.6991 839.163 26.0864C840.542 25.397 841.92 25.0523 843.299 25.0523C844.142 25.0523 845.061 25.2821 846.057 25.7417C847.053 26.1247 847.55 26.6991 847.55 27.4651C847.55 27.9247 847.397 28.346 847.091 28.729C842.418 35.3165 835.601 42.0955 826.639 49.066C829.167 48.5298 831.426 48.2617 833.418 48.2617C839.01 48.2617 843.184 50.1001 845.942 53.7768C847.167 55.3854 848.01 57.1472 848.47 59.0621C849.006 60.9005 849.389 62.7389 849.619 64.5773C849.848 66.4156 850.002 67.6795 850.078 68.3689L850.423 70.7818ZM917.392 62.0495L916.472 64.3475L924.515 71.1265L923.711 67.7944C923.175 65.6496 922.102 61.092 920.494 54.1215L917.392 62.0495ZM930.49 28.4992C931.562 35.1633 932.903 41.9423 934.511 48.8362C936.197 55.6535 938.226 63.5049 940.601 72.3903C942.822 80.8162 944.278 86.4079 944.967 89.1655C945.044 89.3953 945.082 89.74 945.082 90.1996C945.082 92.0379 944.048 93.6465 941.98 95.0253C939.912 96.3275 937.767 96.9786 935.545 96.9786C933.707 96.9786 932.29 96.4807 931.294 95.4849C929.073 93.1103 926.737 90.8507 924.285 88.7059C921.834 86.5611 918.617 83.9185 914.634 80.7779L910.842 77.6757C907.625 84.5696 905.136 89.6634 903.374 92.9571C902.838 94.1061 901.421 95.1785 899.123 96.1743C896.901 97.0935 894.833 97.5531 892.918 97.5531C890.773 97.5531 889.701 96.8637 889.701 95.4849C889.701 95.1019 889.816 94.6423 890.046 94.1061C892.344 88.4378 895.063 81.9269 898.204 74.5734L900.616 68.7136C898.701 66.7986 897.744 65.8411 897.744 65.8411C897.208 65.3049 896.94 64.6922 896.94 64.0028C896.94 62.7006 897.782 61.475 899.467 60.326C901.153 59.1004 903.029 58.2962 905.097 57.9132C908.774 49.1043 912.221 40.1422 915.438 31.027C915.745 29.9546 916.702 29.0354 918.311 28.2694C919.996 27.4268 921.758 26.8906 923.596 26.6608C924.898 26.2779 926.009 26.0864 926.928 26.0864C929.073 26.0864 930.26 26.8906 930.49 28.4992ZM995.103 23.3288C995.946 22.716 996.98 22.1798 998.205 21.7202C999.431 21.2606 1000.58 21.0308 1001.65 21.0308C1002.49 21.0308 1003.26 21.2606 1003.95 21.7202C1004.87 22.333 1005.33 23.1756 1005.33 24.248C1005.33 25.5502 1004.72 26.7374 1003.49 27.8098C999.737 31.1036 996.673 35.1633 994.299 39.989C992.001 44.7382 989.703 50.5597 987.405 57.4536C984.418 66.5688 980.894 78.8629 976.834 94.3359C976.451 95.6381 975.149 97.0169 972.928 98.4722C970.706 99.851 968.638 100.54 966.723 100.54C965.038 100.54 963.927 99.8127 963.391 98.3573C956.268 78.0587 952.476 55.845 952.016 31.7164C951.94 30.1078 953.089 28.5758 955.463 27.1204C957.914 25.6651 960.212 24.9374 962.357 24.9374C964.579 24.9374 965.689 25.78 965.689 27.4651C965.689 41.6359 967.259 55.6535 970.4 69.5179C972.392 62.7772 974.307 57.0323 976.145 52.2832C978.673 45.4659 981.354 39.6826 984.188 34.9335C987.022 30.1078 990.66 26.2396 995.103 23.3288ZM1046.8 84.7994C1047.95 85.1823 1048.52 85.8717 1048.52 86.8675C1048.52 88.0931 1047.79 89.4336 1046.34 90.889C1044.73 92.4975 1042.66 93.3018 1040.13 93.3018C1038.91 93.3018 1037.87 93.1486 1037.03 92.8422C1032.97 91.54 1029.3 90.889 1026 90.889C1020.26 90.889 1014.4 92.7273 1008.42 96.4041C1007.43 97.0935 1006.2 97.668 1004.75 98.1275C1003.37 98.5105 1002.06 98.702 1000.84 98.702C999.69 98.702 998.771 98.5105 998.081 98.1275C997.392 97.668 997.047 96.9786 997.047 96.0594C997.047 95.5232 997.124 95.0636 997.277 94.6806C999.499 88.4761 1001.26 82.8844 1002.56 77.9055C1003.94 72.9265 1004.86 67.871 1005.32 62.7389C1006.01 55.845 1006.35 50.7895 1006.35 47.5723C1006.35 39.0699 1004.71 32.559 1001.41 28.0396C1001.03 27.58 1000.84 26.9672 1000.84 26.2013C1000.84 24.6693 1001.91 23.2522 1004.06 21.95C1006.2 20.5712 1008.31 19.8819 1010.38 19.8819C1011.75 19.8819 1012.75 20.1882 1013.36 20.801C1014.36 21.184 1015.01 21.7968 1015.32 22.6394C1017.23 27.6949 1019.87 31.9845 1023.24 35.508C1026.61 38.955 1030.6 40.6784 1035.19 40.6784C1036.04 40.6784 1037.3 40.5252 1038.99 40.2188C1040.06 40.0656 1040.75 39.989 1041.05 39.989C1042.36 39.989 1043.31 40.2954 1043.93 40.9082C1044.62 41.4444 1044.96 42.2104 1044.96 43.2062C1044.96 44.2786 1044.5 45.351 1043.58 46.4233C1042.74 47.4957 1041.59 48.2617 1040.13 48.7213C1036.99 49.7937 1033.85 50.3299 1030.71 50.3299C1026.96 50.3299 1023.36 49.5639 1019.91 48.0319C1019.76 52.3214 1019.57 55.5386 1019.34 57.6834L1018.53 64.922C1021.52 64.3858 1024.51 63.9262 1027.5 63.5432L1029.1 63.4283C1032.17 63.4283 1033.7 64.4624 1033.7 66.5305C1033.7 67.9093 1032.93 69.1349 1031.4 70.2073C1029.87 71.2797 1028.3 71.969 1026.69 72.2754C1024.32 72.735 1021.06 73.2329 1016.92 73.7691C1016.08 77.5225 1015.16 81.046 1014.17 84.3398C1019.22 82.5014 1024.35 81.5822 1029.56 81.5822C1035.31 81.5822 1041.05 82.6546 1046.8 84.7994ZM1103.2 77.1012C1111.24 70.8967 1117.56 64.3092 1122.15 57.3387C1116.03 55.5003 1109.86 51.7853 1103.66 46.1935C1103.5 53.164 1103.35 63.4666 1103.2 77.1012ZM1136.4 51.0193C1136.94 51.4023 1137.21 51.9002 1137.21 52.5129C1137.21 53.0491 1137.05 53.5853 1136.75 54.1215C1132.69 61.9346 1127.33 68.8668 1120.66 74.9181C1114 80.9694 1105.92 87.0207 1096.42 93.072C1095.5 93.6082 1094.46 94.1061 1093.32 94.5657C1092.17 94.9487 1091.06 95.1402 1089.98 95.1402C1088.83 95.1402 1087.84 94.8338 1087 94.221C1086.08 93.5316 1085.62 92.689 1085.62 91.6932C1085.62 90.3911 1086.34 89.2421 1087.8 88.2463C1087.95 88.1697 1088.11 88.0548 1088.26 87.9016C1088.41 87.7484 1088.64 87.5952 1088.95 87.442L1089.41 58.9472C1089.56 52.7427 1089.71 43.2828 1089.87 30.5674C1089.79 30.4142 1089.75 30.1461 1089.75 29.7631C1089.75 29.6099 1089.83 29.2269 1089.98 28.6141V27.3502C1090.06 25.8949 1091.06 24.6693 1092.97 23.6735C1094.89 22.6011 1096.92 22.0649 1099.06 22.0649C1100.52 22.0649 1101.66 22.333 1102.51 22.8692C1103.43 23.4054 1103.89 24.248 1103.89 25.397V26.546C1113.15 39.338 1123.27 47.151 1134.22 49.9852C1135.37 50.3682 1136.1 50.7129 1136.4 51.0193ZM1141.71 35.1633C1141.78 33.6313 1142.89 32.2909 1145.04 31.1419C1147.18 29.9163 1149.33 29.3035 1151.47 29.3035C1152.7 29.3035 1153.69 29.5716 1154.46 30.1078C1155.22 30.5674 1155.57 31.3334 1155.49 32.4058L1152.16 94.7955C1152.08 96.4041 1150.97 97.8211 1148.83 99.0467C1146.68 100.196 1144.54 100.77 1142.39 100.77C1139.56 100.77 1138.18 99.6595 1138.26 97.4382L1141.71 35.1633ZM1141.48 19.9967C1141.32 21.0691 1141.59 21.8734 1142.28 22.4096C1143.05 22.9458 1144.04 23.2139 1145.27 23.2139C1147.34 23.2139 1149.44 22.6394 1151.59 21.4904C1153.73 20.3414 1154.92 18.9627 1155.15 17.3541C1155.76 13.5241 1156.18 10.6517 1156.41 8.73672C1156.72 6.82175 1155.53 5.86426 1152.85 5.86426C1150.78 5.86426 1148.64 6.43876 1146.42 7.58774C1144.19 8.73672 1143.01 10.0389 1142.85 11.4943L1141.48 19.9967ZM1200.06 46.768C1198.61 45.5425 1196.08 43.9339 1192.48 41.9423C1188.95 39.8741 1186.24 38.8401 1184.32 38.8401C1182.79 38.8401 1182.02 39.606 1182.02 41.138C1182.02 41.6742 1182.21 42.5934 1182.6 43.8956C1183.13 45.6574 1184.32 47.3425 1186.16 48.9511C1188 50.4831 1190.41 52.2832 1193.4 54.3513C1195.85 56.0365 1197.42 57.1855 1198.11 57.7983C1201.48 60.709 1204.16 63.1602 1206.15 65.1518C1208.14 67.0667 1209.94 69.3647 1211.55 72.0456C1213.24 74.65 1214.08 77.331 1214.08 80.0885C1214.08 81.9269 1213.62 83.8419 1212.7 85.8334C1210.94 89.4336 1208.03 92.1911 1203.97 94.1061C1199.99 96.0211 1195.73 96.9786 1191.21 96.9786C1189.68 96.9786 1188.15 96.8637 1186.62 96.6339C1176.2 94.8721 1166.59 87.9399 1157.78 75.8373C1157.32 75.1479 1157.09 74.4585 1157.09 73.7691C1157.09 72.0839 1158.2 70.552 1160.42 69.1732C1162.72 67.7178 1164.98 66.9901 1167.2 66.9901C1168.89 66.9901 1170.11 67.488 1170.88 68.4838C1175.63 74.9181 1180.3 79.6289 1184.9 82.6163C1189.11 85.3738 1192.67 86.7526 1195.58 86.7526C1197.96 86.7526 1199.14 85.7185 1199.14 83.6504C1199.14 82.195 1198.57 80.3949 1197.42 78.2502C1196.27 76.182 1194.78 74.2287 1192.94 72.3903C1191.1 70.552 1188.76 68.4455 1185.93 66.0709L1182.83 63.4283C1182.52 63.1219 1181.1 62.0112 1178.58 60.0962C1176.51 58.5643 1174.75 57.1472 1173.29 55.845C1171.84 54.5428 1170.61 53.1257 1169.61 51.5938C1168.31 49.5256 1167.66 47.3808 1167.66 45.1595C1167.66 41.7125 1169.12 38.572 1172.03 35.7378C1175.01 32.8271 1178.42 30.8355 1182.25 29.7631C1184.7 29.0737 1187.04 28.729 1189.26 28.729C1193.4 28.729 1197.38 29.6865 1201.21 31.6015C1205.12 33.5164 1209.06 36.1591 1213.05 39.5294C1213.73 40.0656 1214.08 40.7167 1214.08 41.4827C1214.08 42.9381 1212.89 44.3552 1210.52 45.734C1208.14 47.1127 1205.81 47.8021 1203.51 47.8021C1201.98 47.8021 1200.83 47.4574 1200.06 46.768ZM1251.35 63.8879C1252.5 60.9771 1253.07 58.1813 1253.07 55.5003C1253.07 51.9768 1252.08 49.1043 1250.08 46.8829C1247.1 43.3594 1242.08 41.6742 1235.03 41.8274C1233.65 53.93 1232.58 68.5221 1231.82 85.6036C1236.18 83.3057 1240.09 80.28 1243.54 76.5267C1246.98 72.6967 1249.59 68.4838 1251.35 63.8879ZM1236.18 32.8653C1237.02 32.7887 1238.33 32.7505 1240.09 32.7505C1249.43 32.7505 1256.4 35.0484 1261 39.6443C1264.45 43.0147 1266.17 47.3425 1266.17 52.6278C1266.17 55.3854 1265.56 58.6792 1264.33 62.5091C1261.8 69.7094 1257.59 76.182 1251.69 81.9269C1245.8 87.5952 1239.05 91.923 1231.47 94.9104C1231.16 102.723 1230.93 109.541 1230.78 115.362C1230.63 121.26 1230.51 126.163 1230.44 130.069C1230.36 139.414 1230.13 148.798 1229.75 158.219C1229.67 159.828 1228.52 161.245 1226.3 162.471C1224.08 163.696 1221.82 164.309 1219.52 164.309C1216.84 164.309 1215.5 163.313 1215.5 161.322L1215.62 152.13C1215.69 149.142 1215.81 141.942 1215.96 130.529C1216.19 119.116 1216.53 108.468 1216.99 98.5871C1214.93 98.8169 1212.9 98.9318 1210.9 98.9318C1209.45 98.9318 1208.38 98.702 1207.69 98.2424C1206.92 97.7828 1206.54 97.1701 1206.54 96.4041C1206.54 95.0253 1207.5 93.5699 1209.41 92.0379C1211.25 90.506 1213.13 89.74 1215.04 89.74C1216.11 89.74 1216.88 89.7017 1217.34 89.6251C1218.18 73.1563 1219.48 57.3387 1221.25 42.1721C1220.71 41.8657 1220.44 41.3678 1220.44 40.6784C1220.44 39.7592 1220.94 38.6869 1221.93 37.4613C1221.93 37.0017 1222.01 36.2357 1222.16 35.1633C1222.39 33.5547 1223.62 32.176 1225.84 31.027C1228.06 29.8014 1230.21 29.1886 1232.28 29.1886C1233.58 29.1886 1234.57 29.4567 1235.26 29.9929C1236.03 30.5291 1236.34 31.3334 1236.18 32.4058V32.8653ZM1279.44 5.86426C1279.6 4.40889 1280.82 3.10671 1283.12 1.95773C1285.42 0.732147 1287.6 0.119357 1289.67 0.119357C1292.12 0.119357 1293.31 1.03854 1293.23 2.87691C1292.01 16.5881 1289.98 35.508 1287.14 59.6366C1285.3 76.1054 1284.12 86.7909 1283.58 91.6932C1283.43 93.3018 1282.2 94.7572 1279.9 96.0594C1277.68 97.285 1275.5 97.8977 1273.35 97.8977C1270.37 97.8977 1268.99 96.7871 1269.22 94.5657C1271.9 68.2157 1275.31 38.6486 1279.44 5.86426ZM1317.96 62.0495L1317.05 64.3475L1325.09 71.1265L1324.28 67.7944C1323.75 65.6496 1322.68 61.092 1321.07 54.1215L1317.96 62.0495ZM1331.06 28.4992C1332.14 35.1633 1333.48 41.9423 1335.08 48.8362C1336.77 55.6535 1338.8 63.5049 1341.17 72.3903C1343.4 80.8162 1344.85 86.4079 1345.54 89.1655C1345.62 89.3953 1345.65 89.74 1345.65 90.1996C1345.65 92.0379 1344.62 93.6465 1342.55 95.0253C1340.48 96.3275 1338.34 96.9786 1336.12 96.9786C1334.28 96.9786 1332.86 96.4807 1331.87 95.4849C1329.65 93.1103 1327.31 90.8507 1324.86 88.7059C1322.41 86.5611 1319.19 83.9185 1315.21 80.7779L1311.42 77.6757C1308.2 84.5696 1305.71 89.6634 1303.95 92.9571C1303.41 94.1061 1301.99 95.1785 1299.7 96.1743C1297.47 97.0935 1295.41 97.5531 1293.49 97.5531C1291.35 97.5531 1290.27 96.8637 1290.27 95.4849C1290.27 95.1019 1290.39 94.6423 1290.62 94.1061C1292.92 88.4378 1295.64 81.9269 1298.78 74.5734L1301.19 68.7136C1299.27 66.7986 1298.32 65.8411 1298.32 65.8411C1297.78 65.3049 1297.51 64.6922 1297.51 64.0028C1297.51 62.7006 1298.36 61.475 1300.04 60.326C1301.73 59.1004 1303.6 58.2962 1305.67 57.9132C1309.35 49.1043 1312.79 40.1422 1316.01 31.027C1316.32 29.9546 1317.28 29.0354 1318.88 28.2694C1320.57 27.4268 1322.33 26.8906 1324.17 26.6608C1325.47 26.2779 1326.58 26.0864 1327.5 26.0864C1329.65 26.0864 1330.83 26.8906 1331.06 28.4992ZM1367.38 31.1419C1367.22 29.5333 1368.22 28.1162 1370.36 26.8906C1372.58 25.5885 1374.77 24.9374 1376.91 24.9374C1379.29 24.9374 1380.59 25.7417 1380.82 27.3502C1382.5 39.606 1383.81 50.1384 1384.72 58.9472C1385.64 67.7561 1386.1 76.4884 1386.1 85.144C1386.1 96.7871 1385.18 107.09 1383.35 116.052C1381.89 123.175 1379.78 129.571 1377.03 135.24C1374.27 140.908 1370.48 145.312 1365.65 148.453C1361.67 150.981 1357.65 152.245 1353.59 152.245C1349.83 152.245 1346.16 151.249 1342.56 149.257C1338.96 147.342 1335.59 144.7 1332.45 141.329C1331.83 140.563 1331.53 139.912 1331.53 139.376C1331.53 137.844 1332.64 136.389 1334.86 135.01C1337 133.708 1339.19 133.057 1341.41 133.057C1342.94 133.057 1344.13 133.478 1344.97 134.32C1345.35 134.703 1346.27 135.661 1347.73 137.193C1349.18 138.725 1350.68 140.027 1352.21 141.099C1353.82 142.172 1355.27 142.708 1356.57 142.708C1357.26 142.708 1357.76 142.631 1358.07 142.478C1359.52 141.942 1360.79 140.678 1361.86 138.687C1363.01 136.695 1363.93 134.857 1364.62 133.172C1365.31 131.486 1365.73 130.452 1365.88 130.069C1367.72 125.473 1369.06 120.609 1369.9 115.477C1370.75 110.422 1371.32 104.753 1371.63 98.4722C1371.78 93.5699 1371.86 89.8549 1371.86 87.3271C1369.86 90.9273 1367.53 93.7614 1364.85 95.8296C1362.17 97.8211 1358.91 98.8169 1355.08 98.8169C1349.64 98.8169 1346.08 96.4041 1344.4 91.5783C1342.79 86.676 1341.94 80.7013 1341.87 73.6542L1341.75 69.0583C1341.75 57.1089 1342.98 45.8871 1345.43 35.3931C1345.74 33.9377 1347.04 32.6356 1349.34 31.4866C1351.63 30.3376 1353.82 29.7631 1355.89 29.7631C1356.96 29.7631 1357.8 29.9929 1358.41 30.4525C1359.03 30.9121 1359.26 31.5632 1359.1 32.4058C1357.34 41.2912 1356.23 50.9044 1355.77 61.2452C1355.62 64.4624 1355.54 66.9518 1355.54 68.7136C1355.54 71.6244 1355.73 74.8798 1356.12 78.4799C1356.57 81.6971 1357.11 83.9951 1357.72 85.3738L1358.64 87.2122C1359.18 86.2164 1359.91 84.7228 1360.83 82.7312C1362.74 77.8289 1364.27 71.9307 1365.42 65.0369L1366.46 59.4068C1367.91 52.5895 1368.64 47.1893 1368.64 43.2062C1368.64 41.2146 1368.56 39.7209 1368.41 38.7252L1367.38 31.1419Z" fill="#1E1E1E"/>
</svg>
