<svg width="93" height="73" viewBox="0 0 93 73" fill="none" xmlns="http://www.w3.org/2000/svg">
<path d="M66.2481 0C57.7695 0 51.1213 2.22108 46.5151 6.37518C41.9771 2.22108 35.2985 0 26.8502 0C9.78708 0 0 8.99044 0 24.682V48.3028C0 63.9868 9.78708 72.9848 26.8502 72.9848C35.2985 72.9848 41.9771 70.7638 46.5151 66.6021C51.0532 70.7638 57.7695 72.9848 66.2481 72.9848C83.2507 72.9848 93 63.9868 93 48.3028V24.682C93 8.99044 83.2734 0 66.2481 0ZM66.2481 67.3146C59.2141 67.3146 53.8441 65.4498 50.3195 61.9022C52.4751 58.2029 53.6021 53.647 53.6021 48.318V24.682C53.6021 19.3757 52.4751 14.8274 50.3195 11.0978C53.8441 7.54259 59.2141 5.67777 66.2481 5.67777C79.6581 5.67777 87.04 12.5002 87.04 24.773V48.2194C87.0551 60.5377 79.6581 67.3146 66.2481 67.3146ZM47.6496 24.8033V48.2497C47.6813 50.7693 47.3085 53.2777 46.5454 55.6786C45.7848 53.2773 45.4146 50.7689 45.4487 48.2497V24.8033C45.4154 22.2867 45.7856 19.781 46.5454 17.382C47.3077 19.7805 47.6805 22.2862 47.6496 24.8033ZM42.7183 61.9477C39.2013 65.4574 33.8464 67.3071 26.8351 67.3071C13.4251 67.3071 6.03562 60.5301 6.03562 48.2118V24.8033C6.03562 12.4926 13.4251 5.7081 26.8351 5.7081C33.8312 5.7081 39.1862 7.55775 42.7183 11.0751C40.54 14.7744 39.3904 19.353 39.3904 24.7199V48.3028C39.4055 53.6698 40.54 58.2484 42.7183 61.9477Z" fill="url(#paint0_linear_24_57)"/>
<defs>
<linearGradient id="paint0_linear_24_57" x1="46.5" y1="0" x2="46.5" y2="72.9848" gradientUnits="userSpaceOnUse">
<stop stop-color="#477EFF"/>
<stop offset="1" stop-color="#C8A8F2"/>
</linearGradient>
</defs>
</svg>
