<svg width="402" height="241" viewBox="0 0 402 241" fill="none" xmlns="http://www.w3.org/2000/svg">
<path d="M304.366 0.268279C333.959 0.268279 357.435 9.23169 374.793 27.1585C392.435 45.0853 401.256 69.9837 401.256 101.854V241H328.695V111.671C328.695 96.3049 324.569 84.4959 316.317 76.2439C308.35 67.7073 297.252 63.439 283.024 63.439C268.797 63.439 257.557 67.7073 249.305 76.2439C241.337 84.4959 237.354 96.3049 237.354 111.671V241H164.793V111.671C164.793 96.3049 160.667 84.4959 152.415 76.2439C144.447 67.7073 133.35 63.439 119.122 63.439C104.894 63.439 93.6545 67.7073 85.4024 76.2439C77.435 84.4959 73.4512 96.3049 73.4512 111.671V241H0.463417V2.82925H73.4512V32.7073C80.8496 22.748 90.5244 14.9227 102.476 9.23168C114.427 3.25608 127.943 0.268279 143.024 0.268279C160.951 0.268279 176.886 4.10974 190.829 11.7927C205.057 19.4756 216.154 30.4309 224.122 44.6585C232.374 31.5691 243.614 20.8983 257.841 12.6463C272.069 4.39429 287.577 0.268279 304.366 0.268279Z" fill="#BE345D" fill-opacity="0.52" style="mix-blend-mode:hard-light"/>
</svg>
