<svg width="782" height="121" viewBox="0 0 782 121" fill="none" xmlns="http://www.w3.org/2000/svg">
<rect x="56" width="670" height="121" fill="url(#paint0_radial_24_234)" fill-opacity="0.52"/>
<path d="M200.51 42.0829V81H195.392V51.9809L182.457 81H178.858L165.867 51.9246V81H160.749V42.0829H166.261L180.658 74.2514L195.055 42.0829H200.51ZM218.581 45.176C217.606 45.176 216.781 44.8386 216.107 44.1637C215.432 43.4888 215.094 42.664 215.094 41.6892C215.094 40.7144 215.432 39.8896 216.107 39.2147C216.781 38.5398 217.606 38.2024 218.581 38.2024C219.518 38.2024 220.306 38.5398 220.943 39.2147C221.618 39.8896 221.955 40.7144 221.955 41.6892C221.955 42.664 221.618 43.4888 220.943 44.1637C220.306 44.8386 219.518 45.176 218.581 45.176ZM221.056 50.1812V81H215.938V50.1812H221.056ZM247.437 81.5061C245.075 81.5061 242.956 81.1125 241.082 80.3251C239.207 79.5003 237.726 78.3755 236.639 76.9508C235.552 75.4886 234.952 73.8202 234.839 71.9456H240.126C240.276 73.4828 240.988 74.7388 242.263 75.7136C243.575 76.6884 245.281 77.1758 247.381 77.1758C249.33 77.1758 250.867 76.7446 251.992 75.8823C253.117 75.02 253.679 73.9327 253.679 72.6204C253.679 71.2707 253.079 70.2772 251.88 69.6398C250.68 68.9649 248.824 68.3088 246.312 67.6714C244.025 67.0716 242.15 66.4717 240.688 65.8718C239.263 65.2344 238.026 64.3159 236.976 63.1161C235.964 61.8789 235.458 60.2667 235.458 58.2796C235.458 56.7049 235.927 55.2614 236.864 53.9492C237.801 52.637 239.132 51.6059 240.857 50.8561C242.582 50.0687 244.55 49.6751 246.762 49.6751C250.174 49.6751 252.929 50.5374 255.029 52.2621C257.129 53.9867 258.253 56.3487 258.403 59.3481H253.286C253.173 57.7359 252.517 56.4425 251.317 55.4677C250.155 54.4929 248.58 54.0055 246.593 54.0055C244.756 54.0055 243.294 54.3991 242.207 55.1865C241.119 55.9738 240.576 57.0048 240.576 58.2796C240.576 59.2919 240.894 60.1355 241.532 60.8103C242.207 61.4477 243.031 61.9726 244.006 62.385C245.019 62.7599 246.406 63.1911 248.168 63.6785C250.38 64.2784 252.18 64.8783 253.567 65.4781C254.954 66.0405 256.135 66.9028 257.11 68.0651C258.122 69.2274 258.647 70.7458 258.685 72.6204C258.685 74.3076 258.216 75.826 257.279 77.1758C256.341 78.5255 255.01 79.594 253.286 80.3814C251.598 81.1312 249.649 81.5061 247.437 81.5061ZM299.517 55.8613C300.53 54.0992 302.029 52.637 304.016 51.4747C306.041 50.275 308.384 49.6751 311.046 49.6751C313.783 49.6751 316.258 50.3312 318.47 51.6434C320.719 52.9557 322.481 54.8115 323.756 57.2111C325.031 59.5731 325.668 62.3288 325.668 65.4781C325.668 68.59 325.031 71.3644 323.756 73.8015C322.481 76.2385 320.719 78.1318 318.47 79.4816C316.258 80.8313 313.783 81.5061 311.046 81.5061C308.422 81.5061 306.097 80.925 304.073 79.7627C302.086 78.563 300.567 77.082 299.517 75.3199V95.622H294.4V50.1812H299.517V55.8613ZM320.438 65.4781C320.438 63.1536 319.969 61.129 319.032 59.4044C318.095 57.6797 316.82 56.3675 315.208 55.4677C313.633 54.5678 311.89 54.1179 309.978 54.1179C308.103 54.1179 306.36 54.5866 304.747 55.5239C303.173 56.4237 301.898 57.7547 300.923 59.5168C299.986 61.2415 299.517 63.2473 299.517 65.5344C299.517 67.8589 299.986 69.9022 300.923 71.6644C301.898 73.389 303.173 74.72 304.747 75.6573C306.36 76.5571 308.103 77.0071 309.978 77.0071C311.89 77.0071 313.633 76.5571 315.208 75.6573C316.82 74.72 318.095 73.389 319.032 71.6644C319.969 69.9022 320.438 67.8402 320.438 65.4781ZM344.271 55.1865C345.171 53.4243 346.446 52.0558 348.095 51.081C349.782 50.1062 351.826 49.6188 354.225 49.6188V54.9053H352.875C347.139 54.9053 344.271 58.0171 344.271 64.2409V81H339.153V50.1812H344.271V55.1865ZM380.323 81.5061C377.436 81.5061 374.811 80.85 372.449 79.5378C370.125 78.2256 368.287 76.3697 366.938 73.9702C365.626 71.5332 364.969 68.7212 364.969 65.5344C364.969 62.385 365.644 59.6106 366.994 57.2111C368.381 54.774 370.256 52.9182 372.618 51.6434C374.98 50.3312 377.623 49.6751 380.548 49.6751C383.472 49.6751 386.115 50.3312 388.477 51.6434C390.839 52.9182 392.695 54.7553 394.045 57.1548C395.432 59.5543 396.126 62.3475 396.126 65.5344C396.126 68.7212 395.413 71.5332 393.989 73.9702C392.601 76.3697 390.708 78.2256 388.308 79.5378C385.909 80.85 383.247 81.5061 380.323 81.5061ZM380.323 77.0071C382.16 77.0071 383.884 76.5759 385.497 75.7136C387.109 74.8512 388.402 73.5578 389.377 71.8331C390.389 70.1085 390.895 68.0089 390.895 65.5344C390.895 63.0599 390.408 60.9603 389.433 59.2356C388.458 57.511 387.184 56.2363 385.609 55.4114C384.034 54.5491 382.328 54.1179 380.491 54.1179C378.617 54.1179 376.892 54.5491 375.317 55.4114C373.78 56.2363 372.543 57.511 371.606 59.2356C370.668 60.9603 370.2 63.0599 370.2 65.5344C370.2 68.0464 370.65 70.1647 371.549 71.8893C372.487 73.614 373.724 74.9075 375.261 75.7698C376.798 76.5946 378.485 77.0071 380.323 77.0071ZM436.148 50.1812L417.589 95.5096H412.303L418.376 80.6626L405.948 50.1812H411.628L421.301 75.1512L430.861 50.1812H436.148ZM476.16 64.4096C476.16 65.3844 476.104 66.4154 475.992 67.5027H451.359C451.546 70.5396 452.578 72.9204 454.452 74.645C456.364 76.3322 458.67 77.1758 461.37 77.1758C463.582 77.1758 465.419 76.6696 466.881 75.6573C468.381 74.6075 469.43 73.2203 470.03 71.4957H475.542C474.717 74.4576 473.067 76.8758 470.593 78.7505C468.118 80.5876 465.044 81.5061 461.37 81.5061C458.445 81.5061 455.821 80.85 453.496 79.5378C451.209 78.2256 449.409 76.3697 448.097 73.9702C446.785 71.5332 446.129 68.7212 446.129 65.5344C446.129 62.3475 446.766 59.5543 448.041 57.1548C449.316 54.7553 451.097 52.9182 453.384 51.6434C455.708 50.3312 458.37 49.6751 461.37 49.6751C464.294 49.6751 466.881 50.3124 469.13 51.5872C471.38 52.8619 473.105 54.6241 474.304 56.8736C475.542 59.0857 476.16 61.5977 476.16 64.4096ZM470.874 63.3411C470.874 61.3915 470.443 59.723 469.58 58.3358C468.718 56.9111 467.537 55.8426 466.037 55.1302C464.575 54.3804 462.944 54.0055 461.145 54.0055C458.558 54.0055 456.346 54.8303 454.508 56.48C452.709 58.1296 451.678 60.4167 451.415 63.3411H470.874ZM487.752 65.5344C487.752 62.3475 488.389 59.5731 489.664 57.2111C490.939 54.8115 492.701 52.9557 494.951 51.6434C497.238 50.3312 499.843 49.6751 502.768 49.6751C506.554 49.6751 509.666 50.5936 512.103 52.4308C514.578 54.2679 516.209 56.8174 516.996 60.0792H511.485C510.96 58.2046 509.929 56.7237 508.392 55.6364C506.892 54.5491 505.017 54.0055 502.768 54.0055C499.843 54.0055 497.481 55.0177 495.682 57.0423C493.882 59.0294 492.982 61.8601 492.982 65.5344C492.982 69.2461 493.882 72.1143 495.682 74.1389C497.481 76.1635 499.843 77.1758 502.768 77.1758C505.017 77.1758 506.892 76.6509 508.392 75.6011C509.891 74.5513 510.922 73.0516 511.485 71.102H516.996C516.171 74.2514 514.522 76.7821 512.047 78.6942C509.573 80.5688 506.479 81.5061 502.768 81.5061C499.843 81.5061 497.238 80.85 494.951 79.5378C492.701 78.2256 490.939 76.3697 489.664 73.9702C488.389 71.5707 487.752 68.7587 487.752 65.5344ZM536.816 54.3991V72.5642C536.816 74.0639 537.134 75.1324 537.772 75.7698C538.409 76.3697 539.515 76.6696 541.09 76.6696H544.858V81H540.246C537.397 81 535.26 80.3439 533.835 79.0316C532.41 77.7194 531.698 75.5636 531.698 72.5642V54.3991H527.705V50.1812H531.698V42.4203H536.816V50.1812H544.858V54.3991H536.816ZM571.248 81.5061C568.361 81.5061 565.737 80.85 563.375 79.5378C561.05 78.2256 559.213 76.3697 557.864 73.9702C556.551 71.5332 555.895 68.7212 555.895 65.5344C555.895 62.385 556.57 59.6106 557.92 57.2111C559.307 54.774 561.182 52.9182 563.544 51.6434C565.906 50.3312 568.549 49.6751 571.473 49.6751C574.398 49.6751 577.041 50.3312 579.403 51.6434C581.765 52.9182 583.621 54.7553 584.971 57.1548C586.358 59.5543 587.051 62.3475 587.051 65.5344C587.051 68.7212 586.339 71.5332 584.914 73.9702C583.527 76.3697 581.634 78.2256 579.234 79.5378C576.835 80.85 574.173 81.5061 571.248 81.5061ZM571.248 77.0071C573.085 77.0071 574.81 76.5759 576.422 75.7136C578.034 74.8512 579.328 73.5578 580.303 71.8331C581.315 70.1085 581.821 68.0089 581.821 65.5344C581.821 63.0599 581.334 60.9603 580.359 59.2356C579.384 57.511 578.109 56.2363 576.535 55.4114C574.96 54.5491 573.254 54.1179 571.417 54.1179C569.542 54.1179 567.818 54.5491 566.243 55.4114C564.706 56.2363 563.469 57.511 562.531 59.2356C561.594 60.9603 561.125 63.0599 561.125 65.5344C561.125 68.0464 561.575 70.1647 562.475 71.8893C563.412 73.614 564.65 74.9075 566.187 75.7698C567.724 76.5946 569.411 77.0071 571.248 77.0071ZM611.439 81.5061C609.077 81.5061 606.959 81.1125 605.084 80.3251C603.21 79.5003 601.729 78.3755 600.641 76.9508C599.554 75.4886 598.954 73.8202 598.842 71.9456H604.128C604.278 73.4828 604.991 74.7388 606.265 75.7136C607.577 76.6884 609.283 77.1758 611.383 77.1758C613.333 77.1758 614.87 76.7446 615.995 75.8823C617.119 75.02 617.682 73.9327 617.682 72.6204C617.682 71.2707 617.082 70.2772 615.882 69.6398C614.682 68.9649 612.826 68.3088 610.314 67.6714C608.027 67.0716 606.153 66.4717 604.691 65.8718C603.266 65.2344 602.029 64.3159 600.979 63.1161C599.967 61.8789 599.46 60.2667 599.46 58.2796C599.46 56.7049 599.929 55.2614 600.866 53.9492C601.804 52.637 603.135 51.6059 604.859 50.8561C606.584 50.0687 608.552 49.6751 610.764 49.6751C614.176 49.6751 616.932 50.5374 619.031 52.2621C621.131 53.9867 622.256 56.3487 622.406 59.3481H617.288C617.176 57.7359 616.519 56.4425 615.32 55.4677C614.157 54.4929 612.583 54.0055 610.596 54.0055C608.759 54.0055 607.296 54.3991 606.209 55.1865C605.122 55.9738 604.578 57.0048 604.578 58.2796C604.578 59.2919 604.897 60.1355 605.534 60.8103C606.209 61.4477 607.034 61.9726 608.009 62.385C609.021 62.7599 610.408 63.1911 612.17 63.6785C614.382 64.2784 616.182 64.8783 617.569 65.4781C618.956 66.0405 620.137 66.9028 621.112 68.0651C622.125 69.2274 622.649 70.7458 622.687 72.6204C622.687 74.3076 622.218 75.826 621.281 77.1758C620.344 78.5255 619.013 79.594 617.288 80.3814C615.601 81.1312 613.651 81.5061 611.439 81.5061Z" fill="black"/>
<defs>
<radialGradient id="paint0_radial_24_234" cx="0" cy="0" r="1" gradientUnits="userSpaceOnUse" gradientTransform="translate(391 60.5) rotate(90) scale(60.5 335)">
<stop stop-color="#F047FF" stop-opacity="0.48"/>
<stop offset="0.5" stop-color="#3C43FF" stop-opacity="0.24"/>
<stop offset="1" stop-color="#BE3455" stop-opacity="0"/>
</radialGradient>
</defs>
</svg>
