<svg width="283" height="270" viewBox="0 0 283 270" fill="none" xmlns="http://www.w3.org/2000/svg">
<path d="M129.136 9.05163C133.028 -2.92541 149.972 -2.92538 153.864 9.05165L178.208 83.9757C179.948 89.332 184.94 92.9585 190.572 92.9585H269.352C281.945 92.9585 287.181 109.074 276.993 116.476L213.259 162.781C208.702 166.092 206.796 171.959 208.536 177.316L232.88 252.24C236.772 264.217 223.064 274.176 212.875 266.774L149.141 220.469C144.585 217.158 138.415 217.158 133.859 220.469L70.1246 266.774C59.9363 274.177 46.2281 264.217 50.1196 252.24L74.4639 177.316C76.2043 171.959 74.2978 166.092 69.7414 162.781L6.00717 116.476C-4.1811 109.073 1.055 92.9585 13.6484 92.9585H92.4282C98.0602 92.9585 103.052 89.332 104.792 83.9757L129.136 9.05163Z" fill="url(#paint0_radial_24_42)"/>
<defs>
<radialGradient id="paint0_radial_24_42" cx="0" cy="0" r="1" gradientUnits="userSpaceOnUse" gradientTransform="translate(141.5 147.5) rotate(90) scale(176.5)">
<stop stop-color="#FFD6D6"/>
<stop offset="0.359375" stop-color="#FD8BFF" stop-opacity="0.640625"/>
<stop offset="1" stop-color="#D9D9D9" stop-opacity="0"/>
</radialGradient>
</defs>
</svg>
