<svg width="442" height="48" viewBox="0 0 442 48" fill="none" xmlns="http://www.w3.org/2000/svg">
<g clip-path="url(#clip0_41_54)">
<path fill-rule="evenodd" clip-rule="evenodd" d="M0 31.8645V16C0 6.11009 5.90658 0 17.2165 0C27.0034 0 31.7843 3.90179 33.8767 11.3125C34.1284 11.9628 33.8767 12.166 33.3602 12.4234L32.1551 12.8163C31.5856 13.0059 31.334 12.9382 31.0691 12.2879C29.2283 5.85268 25.4142 2.80441 17.2165 2.80441C7.74742 2.80441 3.03275 7.81711 3.03275 15.9458V31.8781C3.03275 40.21 7.93282 45.2092 17.2165 45.2092C26.5001 45.2092 31.387 40.21 31.387 32.3387V26.6757H17.68C17.1105 26.6757 16.9251 26.4183 16.9251 25.8357V24.6571C16.9251 24.0745 17.1105 23.8171 17.68 23.8171H33.4397C34.0754 23.8171 34.2608 24.0745 34.2608 24.7248V32.3387C34.2608 41.8222 28.288 48.0135 17.1635 48.0135C6.03901 48.0135 0 41.8222 0 31.8645ZM44.8157 46.1982V1.76123C44.8157 1.11094 45.0012 0.907732 45.5706 0.907732H71.5807C72.1502 0.907732 72.4018 1.11094 72.4018 1.76123V2.92635C72.4018 3.5089 72.1502 3.71212 71.5807 3.71212H47.7425V22.2456H68.7864C69.4221 22.2456 69.6075 22.503 69.6075 23.0855V24.2507C69.6075 24.901 69.4221 25.1042 68.7864 25.1042H47.7425V44.2879H72.4681C73.0375 44.2879 73.2362 44.4776 73.2362 45.0737V46.1982C73.2362 46.8484 73.0375 47.0381 72.4681 47.0381H45.5706C45.0012 47.0788 44.8157 46.8891 44.8157 46.1982ZM83.0231 1.76122V46.1981C83.0231 46.8891 83.2085 47.0787 83.7118 47.0381H85.0361C85.6718 47.0381 85.8705 46.8484 85.8705 46.1981V15.8916C85.8705 13.5883 85.7487 11.2592 85.6423 9.22337C85.5598 7.64297 85.4864 6.23933 85.4864 5.16174H85.6056C86.23 6.04077 86.938 7.27403 87.7284 8.6507C88.6313 10.2233 89.6416 11.983 90.7573 13.6156L113.271 46.5233C113.358 46.7001 113.496 46.8448 113.667 46.9371C113.838 47.0294 114.033 47.0647 114.225 47.0381H115.549C116.185 47.0381 116.37 46.8484 116.37 46.1981V1.76122C116.37 1.11092 116.185 0.907716 115.549 0.907716H114.225C113.642 0.907716 113.457 1.11092 113.457 1.69347V31.0246C113.457 33.5313 113.597 36 113.721 38.1773L113.721 38.1775C113.819 39.8951 113.907 41.4314 113.907 42.6622H113.708C112.982 41.6413 112.168 40.2784 111.26 38.7572C110.264 37.0887 109.154 35.2297 107.921 33.4225L85.9897 1.36834C85.8891 1.22395 85.7559 1.10664 85.6014 1.02642C85.4468 0.946198 85.2756 0.905471 85.1023 0.907716H83.778C83.2085 0.907716 83.0231 1.11092 83.0231 1.76122ZM128.726 46.1982V1.76123C128.726 1.11094 128.912 0.907732 129.481 0.907732H142.513C154.339 0.907732 160.961 7.47843 160.961 18.0728V29.9407C160.961 40.5487 154.339 47.1059 142.513 47.1059H129.481C128.925 47.0788 128.726 46.8891 128.726 46.1982ZM158.061 29.9407V18.0999C158.061 9.06351 152.591 3.73923 142.539 3.73923H131.68V44.3827H142.539C152.498 44.2879 158.061 38.9501 158.061 29.9407ZM171.754 1.76123V46.1982C171.754 46.8891 171.953 47.0788 172.522 47.0381H199.42C199.989 47.0381 200.175 46.8484 200.175 46.1982V45.0737C200.175 44.4776 199.989 44.2879 199.42 44.2879H174.681V25.1042H195.725C196.361 25.1042 196.546 24.901 196.546 24.2507V23.0855C196.546 22.503 196.361 22.2456 195.725 22.2456H174.681V3.71212H198.519C199.089 3.71212 199.354 3.5089 199.354 2.92635V1.76123C199.354 1.11094 199.089 0.907732 198.519 0.907732H172.522C171.953 0.907732 171.754 1.11094 171.754 1.76123ZM209.962 46.1982V1.76123C209.962 1.11094 210.147 0.907732 210.73 0.907732H228.966C237.044 0.907732 241.944 5.66301 241.944 13.9136C241.944 21.3921 237.548 25.8764 230.688 26.4725C233.028 27.4994 234.896 29.4047 235.905 31.7968L243.083 46.1982C243.401 46.6588 243.269 47.0381 242.633 47.0381H241.309C240.302 47.0381 239.984 46.9162 239.72 46.3336L233.177 32.9348C231.085 28.6402 228.661 26.757 223.324 26.757H212.888V46.1982C212.888 46.8484 212.69 47.0381 212.12 47.0381H210.796C210.147 47.0788 209.962 46.8891 209.962 46.1982ZM238.846 13.9136C238.846 7.41068 235.23 3.71212 228.741 3.71212H212.888V24.0339H228.714C235.071 23.9932 238.846 20.4573 238.846 13.9136ZM252.685 1.76123V46.1982C252.685 46.8891 252.87 47.0788 253.413 47.0381H254.844C255.413 47.0381 255.599 46.8484 255.599 46.1982V25.7545H276.324C276.907 25.7545 277.159 25.5512 277.159 24.9687V23.8036C277.159 23.1533 276.907 22.9501 276.324 22.9501H255.612V3.71212H279.45C280.019 3.71212 280.271 3.5089 280.271 2.92635V1.76123C280.271 1.11094 280.019 0.907732 279.45 0.907732H253.44C252.87 0.907732 252.685 1.11094 252.685 1.76123ZM289.674 46.1982V1.76123C289.674 1.11094 289.873 0.907732 290.442 0.907732H291.819C292.402 0.907732 292.587 1.11094 292.587 1.76123V44.2879H315.724C316.306 44.2879 316.492 44.4776 316.492 45.0737V46.1982C316.492 46.8484 316.306 47.0381 315.724 47.0381H290.495C289.873 47.0788 289.674 46.8891 289.674 46.1982ZM322.279 16.0677V31.9323C322.279 41.8764 328.371 48 339.496 48C345.193 48 349.539 46.3939 352.424 43.491C355.339 46.3939 359.716 48 365.413 48C376.538 48 382.524 41.8764 382.524 31.9323V16.0677C382.524 6.11008 376.657 0 365.413 0C359.684 0 355.323 1.58651 352.424 4.46019C349.555 1.58651 345.225 0 339.496 0C328.252 0 322.279 6.11008 322.279 16.0677ZM365.36 45.1956C360.373 45.1956 356.654 43.7527 354.281 41.1254C355.809 38.6353 356.593 35.5345 356.593 31.9323V16.0677C356.593 12.4578 355.824 9.35348 354.307 6.86268C356.691 4.23624 360.411 2.79087 365.36 2.79087C374.578 2.79087 379.544 7.80357 379.544 16.1219V31.8645C379.544 40.1964 374.644 45.1956 365.36 45.1956ZM353.613 16.1219C353.613 13.7305 353.204 11.6123 352.401 9.80783C351.599 11.6123 351.19 13.7305 351.19 16.1219V31.8645C351.19 34.2768 351.599 36.4098 352.407 38.2229C353.216 36.4098 353.626 34.2768 353.626 31.8645H353.613V16.1219ZM348.197 16.0677C348.197 12.4649 348.979 9.36571 350.509 6.87741C348.126 4.24165 344.401 2.79087 339.443 2.79087C330.225 2.79087 325.259 7.80357 325.259 16.1219V31.8645C325.259 40.1964 330.159 45.1956 339.443 45.1956C344.436 45.1956 348.162 43.7491 350.538 41.1156C348.994 38.6272 348.197 35.5297 348.197 31.9323V16.0677ZM389.675 1.6664L401.435 46.3743C401.634 46.9568 401.952 47.0788 402.468 47.011H403.793C404.428 47.011 404.746 46.8891 404.879 46.2388L414.348 12.0305C414.851 10.1744 415.368 8.06098 415.738 6.11009H415.937C416.308 8.06098 416.745 10.2015 417.261 12.0305L426.664 46.3065C426.863 46.8891 427.167 47.011 427.75 47.011H429.075C429.71 47.011 430.028 46.8891 430.147 46.2388L441.974 1.62576C442.106 1.09739 442.04 0.839983 441.47 0.839983H439.961C439.272 0.839983 439.007 0.97546 438.888 1.55802L429.79 36.7824C429.691 37.2944 429.582 37.8515 429.47 38.4218C429.163 39.9943 428.835 41.667 428.651 42.7705H428.465C428.147 41.199 427.631 38.6655 427.061 36.7147L417.738 2.64185C417.619 1.99155 417.235 1.85607 416.665 1.85607H415.341C414.705 1.85607 414.388 1.99155 414.189 2.64185L404.72 36.6469L404.68 36.826C404.26 38.7046 403.703 41.1954 403.395 42.7705H403.276C403.021 41.853 402.761 40.5429 402.503 39.2366C402.318 38.3056 402.134 37.3764 401.952 36.5927L392.854 1.59866C392.734 1.0161 392.47 0.880625 391.781 0.880625H390.192C389.609 0.880625 389.49 1.13804 389.675 1.6664Z" fill="#231F20"/>
</g>
<defs>
<clipPath id="clip0_41_54">
<rect width="442" height="48" fill="white"/>
</clipPath>
</defs>
</svg>
